<?xml version="1.0" encoding="UTF-8"?>
<svg version="1.1" xmlns="http://www.w3.org/2000/svg" width="500" height="500">
<path d="M0 0 C4.73916947 0.00262361 9.47833753 0.00015922 14.21750712 -0.00138617 C22.16758908 -0.00318114 30.1176616 -0.00087466 38.06774211 0.00395441 C46.1003004 0.00877902 54.13284008 0.00877622 62.16539836 0.00395441 C139.05014754 -0.04094699 139.05014754 -0.04094699 169.94396281 0.579638 C170.92704984 0.59905325 171.91013686 0.61846849 172.9230144 0.63847208 C178.134916 0.74596934 183.34505852 0.8800962 188.55521083 1.05288172 C190.3115398 1.10969725 192.06804755 1.16113068 193.82465816 1.20844507 C196.57743841 1.28496316 199.32893311 1.38085671 202.0809257 1.48149347 C203.32757204 1.51204671 203.32757204 1.51204671 204.59940314 1.54321718 C209.23043873 1.73784742 212.24380979 2.25127833 216.07286906 5.1343255 C214.59408391 11.31833616 212.02366634 16.5216202 209.07286906 22.1343255 C208.31607572 23.59251204 207.55959126 25.0508589 206.80333781 26.5093255 C202.97813884 33.85678922 199.10827554 41.15804867 194.94786906 48.3218255 C191.01761347 55.11690595 187.51637852 62.08091203 184.05968547 69.1240716 C177.61871709 82.2450349 170.88653596 95.20354272 164.07286906 108.1343255 C163.21464372 109.76575574 162.35656627 111.3972638 161.49865031 113.02885675 C158.17402241 119.34980232 154.84902848 125.67049835 151.50646281 131.98198175 C147.28732551 139.95779717 143.13153233 147.95449653 139.12902141 156.04130793 C134.93273792 164.48603571 130.49373144 172.80563909 126.07286906 181.1343255 C127.22335734 181.32768488 127.22335734 181.32768488 128.39708781 181.5249505 C133.57218194 182.70351209 136.14601002 185.76911228 139.02208781 190.00541925 C141.09317865 193.35466901 143.09547449 196.72903546 145.07286906 200.1343255 C151.69586522 211.37388734 158.8166395 222.2947727 166.07286906 233.1343255 C191.24743372 270.74077395 191.24743372 270.74077395 191.26036906 287.6343255 C191.27261516 288.47608332 191.28486125 289.31784113 191.29747844 290.18510675 C191.31778893 298.78321325 191.31778893 298.78321325 189.07286906 302.1343255 C186.52599406 303.20854425 186.52599406 303.20854425 183.32286906 303.8218255 C182.29677531 304.03194269 181.27068156 304.24205988 180.21349406 304.45854425 C178.83403088 304.68832375 177.45368782 304.91283768 176.07286906 305.1343255 C175.14097916 305.29747625 174.20908925 305.460627 173.24896026 305.62872171 C163.37396916 307.22362419 153.76427295 307.41873059 143.78453898 307.39311457 C141.98695048 307.39583162 140.18936308 307.39939653 138.39177775 307.40373468 C133.5408069 307.41279379 128.68992189 307.40933658 123.83894968 307.40297651 C118.70788038 307.39786168 113.57681773 307.40262496 108.44574809 307.40574884 C99.80361967 307.40938152 91.16152547 307.40461701 82.51940227 307.39506769 C72.64286611 307.3842777 62.76641317 307.38764193 52.88987917 307.3987205 C44.32935948 307.4079262 35.76886425 307.40901247 27.20834118 307.40384316 C22.13285278 307.40078297 17.0574028 307.40014181 11.98191714 307.40691614 C-8.48578629 307.43038609 -28.90831487 307.21625474 -49.35559773 306.24272394 C-50.20160971 306.2038999 -51.04762169 306.16507586 -51.9192704 306.12507534 C-80.95710983 304.75675785 -80.95710983 304.75675785 -86.92713094 299.1343255 C-90.01787949 292.9528284 -88.5932675 281.62199593 -87.31384969 274.923388 C-84.67882249 267.19242715 -80.12171075 260.10832349 -75.92713094 253.1343255 C-75.26713094 253.1343255 -74.60713094 253.1343255 -73.92713094 253.1343255 C-73.63838094 252.3918255 -73.34963094 251.6493255 -73.05213094 250.8843255 C-72.1041045 248.56692753 -71.07867182 246.35515436 -69.92713094 244.1343255 C-69.26713094 244.1343255 -68.60713094 244.1343255 -67.92713094 244.1343255 C-67.68478719 243.43823175 -67.44244344 242.742138 -67.19275594 242.0249505 C-65.71199785 238.64297215 -63.81452185 235.89412087 -61.67713094 232.8843255 C-60.85755188 231.72066329 -60.03854184 230.55660012 -59.22009969 229.392138 C-58.46342 228.31705988 -57.70674031 227.24198175 -56.92713094 226.1343255 C-55.46114818 223.97354695 -54.01659651 221.80007183 -52.57556844 219.62260675 C-51.27388706 217.65774647 -49.96601898 215.69753462 -48.65369344 213.73979425 C-43.98848163 206.77386764 -39.37352734 199.78207977 -34.88294148 192.70195246 C-30.66820837 186.08414246 -30.66820837 186.08414246 -28.92713094 184.1343255 C-27.93713094 184.1343255 -26.94713094 184.1343255 -25.92713094 184.1343255 C-25.92713094 183.4743255 -25.92713094 182.8143255 -25.92713094 182.1343255 C-23.94713094 181.8043255 -21.96713094 181.4743255 -19.92713094 181.1343255 C-20.19525594 180.65866144 -20.46338094 180.18299738 -20.73963094 179.69291925 C-26.327723 169.71155744 -31.72223265 159.63357941 -36.80213094 149.3843255 C-41.34757638 140.21481313 -46.13573431 131.17708994 -50.92713094 122.1343255 C-56.06291645 112.44159869 -61.16184858 102.74168491 -66.02918172 92.91093683 C-68.25020962 88.44144018 -70.56004593 84.02804015 -72.92713094 79.6343255 C-75.64289516 74.5934026 -78.26150667 69.51572629 -80.80213094 64.3843255 C-83.72461727 58.48811913 -86.73081506 52.64191256 -89.80213094 46.8218255 C-90.21857869 46.03259699 -90.63502645 45.24336847 -91.06409383 44.43022394 C-93.23958782 40.31368038 -95.4233194 36.20158108 -97.61072469 32.09135675 C-100.07568754 27.4524399 -102.51485739 22.80085377 -104.92713094 18.1343255 C-105.52396688 16.98061457 -106.12080281 15.82690363 -106.73572469 14.63823175 C-107.21138875 13.66756769 -107.68705281 12.69690363 -108.17713094 11.6968255 C-108.57416219 10.89373957 -108.97119344 10.09065363 -109.38025594 9.26323175 C-109.92713094 7.1343255 -109.92713094 7.1343255 -109.22400594 4.91166925 C-107.92713094 3.1343255 -107.92713094 3.1343255 -104.92713094 2.1343255 C-70.14422279 -0.61470785 -34.86826302 -0.02559239 0 0 Z " fill="#65A5C7" transform="translate(202.9271309375763,60.86567449569702)"/>
<path d="M0 0 C2.40587863 1.51481247 2.72949154 3.45621497 3.6875 6.0625 C-5.27497728 11.46202525 -14.25782048 16.81854221 -23.3125 22.0625 C-20.68459857 24.85811603 -18.20507367 26.89902025 -14.85546875 28.76171875 C-13.99695313 29.24487549 -13.1384375 29.72803223 -12.25390625 30.22583008 C-11.34511719 30.72880615 -10.43632812 31.23178223 -9.5 31.75 C1.45220057 37.87184899 1.45220057 37.87184899 6.23046875 40.8828125 C6.90553467 41.30602783 7.58060059 41.72924316 8.27612305 42.1652832 C9.51825145 42.95143038 10.75331399 43.74889506 11.97973633 44.55932617 C14.45035269 46.1125009 16.06940411 47.11884273 19.03100586 46.84887695 C22.11663066 45.93546849 24.47798435 44.61061473 27.22265625 42.9296875 C28.28033203 42.28773438 29.33800781 41.64578125 30.42773438 40.984375 C32.07225586 39.97117187 32.07225586 39.97117187 33.75 38.9375 C35.90710069 37.62165557 38.06465175 36.30654915 40.22265625 34.9921875 C41.28500488 34.34475586 42.34735352 33.69732422 43.44189453 33.03027344 C46.7431108 31.02878381 50.05017846 29.03896021 53.37109375 27.0703125 C54.3448999 26.49168457 55.31870605 25.91305664 56.32202148 25.31689453 C58.6875 24.0625 58.6875 24.0625 60.6875 24.0625 C58.25420823 21.33613829 55.63953085 19.79242511 52.43359375 18.06640625 C51.41458984 17.50759766 50.39558594 16.94878906 49.34570312 16.37304688 C47.19718298 15.20693072 45.04612797 14.04547297 42.89257812 12.88867188 C41.87486328 12.32857422 40.85714844 11.76847656 39.80859375 11.19140625 C38.8745874 10.68681885 37.94058105 10.18223145 36.97827148 9.66235352 C34.55156274 7.96756268 33.71785441 6.79691632 32.6875 4.0625 C33.6775 2.7425 34.6675 1.4225 35.6875 0.0625 C39.74953717 0.65230614 42.62295782 1.9625974 46.14453125 4.046875 C47.69043945 4.95566406 47.69043945 4.95566406 49.26757812 5.8828125 C50.33427734 6.51960937 51.40097656 7.15640625 52.5 7.8125 C53.55509766 8.43382812 54.61019531 9.05515625 55.69726562 9.6953125 C58.70285405 11.47057594 61.70195273 13.25371849 64.6875 15.0625 C65.38386566 15.364478 66.08023132 15.66645599 66.79769897 15.97758484 C69.18243426 17.13358534 70.85360534 18.1400953 72.6875 20.0625 C73.86351899 24.00665201 73.7589571 27.83473236 73.6875 31.92578125 C73.69837646 33.07290085 73.70925293 34.22002045 73.72045898 35.40190125 C73.7466246 39.0605548 73.71776597 42.71642047 73.6875 46.375 C73.69559086 48.85743635 73.70726709 51.33986379 73.72265625 53.82226562 C73.75251756 59.90285302 73.73722554 65.98207071 73.6875 72.0625 C74.81311091 70.82179974 75.9322012 69.57518209 77.04858398 68.32617188 C77.98443581 67.28583801 77.98443581 67.28583801 78.93919373 66.2244873 C81.5815657 62.95688211 83.13107338 59.4108825 84.75 55.5625 C87.47639717 49.45051102 90.12200645 44.05269063 94.6875 39.0625 C95.6775 39.0625 96.6675 39.0625 97.6875 39.0625 C98.1839502 39.94264771 98.1839502 39.94264771 98.69042969 40.84057617 C102.68356805 47.91788488 106.68344105 54.99136432 110.6875 62.0625 C111.23680176 63.03300293 111.78610352 64.00350586 112.35205078 65.00341797 C119.48555895 77.61466693 119.48555895 77.61466693 127 90 C133.11015548 99.79158807 138.76174045 109.25004227 139 121 C139.05607422 122.80791016 139.05607422 122.80791016 139.11328125 124.65234375 C138.60456705 128.72672443 137.63964091 130.25117672 134.6875 133.0625 C123.18723583 138.56938558 108.23749644 137.36119264 95.78125 137.35302734 C93.93147515 137.35902677 92.08170278 137.36583551 90.23193359 137.37338257 C85.25262099 137.39089923 80.27337731 137.39573164 75.29403687 137.39701414 C72.17396342 137.3984437 69.05390706 137.40272826 65.93383789 137.40800858 C55.02358909 137.42645659 44.11338888 137.43468517 33.203125 137.43310547 C23.07207758 137.4319033 12.94124292 137.45303403 2.81024933 137.4845928 C-5.92483257 137.51082288 -14.6598452 137.52147005 -23.39496613 137.52019465 C-28.59598812 137.51968729 -33.79682039 137.52524543 -38.99780273 137.54655075 C-43.88999054 137.56604891 -48.7818097 137.56597919 -53.67401123 137.55151749 C-55.45766749 137.54944306 -57.24134757 137.55404763 -59.02496338 137.5662384 C-84.59894251 137.72956517 -84.59894251 137.72956517 -92.67883301 131.12958336 C-96.14763785 126.74049501 -95.33930827 120.58252343 -94.73730469 115.26367188 C-93.37112838 108.18468017 -89.02872639 102.10928174 -85.3125 96.0625 C-84.19617494 94.18149059 -83.08306745 92.29856907 -81.97265625 90.4140625 C-78.48695616 84.52596601 -74.94128704 78.67553809 -71.38568115 72.82946777 C-69.87837046 70.34771583 -68.37655287 67.86265783 -66.87478638 65.37754822 C-64.9598698 62.20901561 -63.04243795 59.04200718 -61.125 55.875 C-60.76124268 55.27368256 -60.39748535 54.67236511 -60.02270508 54.05282593 C-58.98140835 52.33252926 -57.93800521 50.61350815 -56.89453125 48.89453125 C-56.00084839 47.42077026 -56.00084839 47.42077026 -55.08911133 45.91723633 C-51.25018835 39.74868797 -51.25018835 39.74868797 -49.3125 37.0625 C-48.6525 37.0625 -47.9925 37.0625 -47.3125 37.0625 C-43.97916667 43.72916667 -40.64583333 50.39583333 -37.3125 57.0625 C-37.39274414 55.45979248 -37.39274414 55.45979248 -37.47460938 53.82470703 C-38.75292852 24.53055235 -38.75292852 24.53055235 -34.87207031 17.42529297 C-31.3408403 13.82803183 -27.12473268 12.14671861 -22.35693359 10.71435547 C-19.41404918 9.77603431 -16.89848989 8.25738592 -14.25 6.6875 C-13.39148438 6.23503906 -12.53296875 5.78257812 -11.6484375 5.31640625 C-9.49853472 4.16236144 -7.44562332 2.91367907 -5.375 1.625 C-2.3125 0.0625 -2.3125 0.0625 0 0 Z " fill="#E2E9F1" transform="translate(232.3125,206.9375)"/>
<path d="M0 0 C7.34647552 3.14848951 10.111609 8.22491123 14 15 C14.91332536 16.5436485 15.82991388 18.08537166 16.75 19.625 C17.47316406 20.83929688 17.47316406 20.83929688 18.2109375 22.078125 C23.58524769 30.85538269 29.27534555 39.4483557 35 48 C60.17456466 85.60644845 60.17456466 85.60644845 60.1875 102.5 C60.19974609 103.34175781 60.21199219 104.18351562 60.22460938 105.05078125 C60.24491986 113.64888774 60.24491986 113.64888774 58 117 C55.453125 118.07421875 55.453125 118.07421875 52.25 118.6875 C51.22390625 118.89761719 50.1978125 119.10773438 49.140625 119.32421875 C47.76116181 119.55399824 46.38081876 119.77851217 45 120 C44.06811009 120.16315075 43.13622019 120.3263015 42.17609119 120.49439621 C32.30110009 122.08929868 22.69140388 122.28440508 12.71166992 122.25878906 C10.91408141 122.26150612 9.11649402 122.26507102 7.31890869 122.26940918 C2.46793784 122.27846829 -2.38294717 122.27501108 -7.23391938 122.26865101 C-12.36498868 122.26353617 -17.49605133 122.26829946 -22.62712097 122.27142334 C-31.26924939 122.27505602 -39.91134359 122.27029151 -48.5534668 122.26074219 C-58.43000295 122.2499522 -68.3064559 122.25331642 -78.1829899 122.264395 C-86.74350958 122.27360069 -95.30400482 122.27468696 -103.86452788 122.26951766 C-108.94001628 122.26645747 -114.01546626 122.2658163 -119.09095192 122.27259064 C-139.55865535 122.29606059 -159.98118393 122.08192924 -180.4284668 121.10839844 C-181.27447878 121.0695744 -182.12049075 121.03075036 -182.99213946 120.99074984 C-212.02997889 119.62243235 -212.02997889 119.62243235 -218 114 C-221.09074855 107.8185029 -219.66613656 96.48767042 -218.38671875 89.7890625 C-215.75169155 82.05810164 -211.19457981 74.97399799 -207 68 C-206.34 68 -205.68 68 -205 68 C-204.71125 67.2575 -204.4225 66.515 -204.125 65.75 C-203.17697356 63.43260203 -202.15154089 61.22082885 -201 59 C-200.34 59 -199.68 59 -199 59 C-198.75765625 58.30390625 -198.5153125 57.6078125 -198.265625 56.890625 C-196.78486691 53.50864665 -194.88739091 50.75979536 -192.75 47.75 C-191.94078766 46.60199829 -191.13219635 45.45355857 -190.32421875 44.3046875 C-189.92895996 43.74491211 -189.53370117 43.18513672 -189.12646484 42.60839844 C-186.68234457 39.11861422 -184.3471376 35.5553363 -182 32 C-180 29 -180 29 -177 28 C-175.33410763 26.14188287 -175.33410763 26.14188287 -173.8125 23.9375 C-173.28269531 23.20402344 -172.75289062 22.47054688 -172.20703125 21.71484375 C-171.80871094 21.14894531 -171.41039062 20.58304687 -171 20 C-169 21 -169 21 -168.0078125 23.41015625 C-167.9955767 29.03250741 -170.93500383 32.77664737 -173.875 37.4375 C-174.47054687 38.41235352 -175.06609375 39.38720703 -175.6796875 40.39160156 C-177.43967849 43.26960406 -179.21911517 46.13489772 -181 49 C-183.40179966 52.92744522 -185.77935128 56.86848698 -188.12109375 60.83203125 C-189.26805182 62.76588363 -190.44156533 64.684686 -191.66015625 66.57421875 C-194.7564567 71.79221811 -195.49047081 76.40551808 -195.625 82.375 C-195.64828369 83.06585693 -195.67156738 83.75671387 -195.69555664 84.46850586 C-195.71582558 86.73458319 -195.71582558 86.73458319 -195 90 C-185.6521657 99.02572791 -170.43178984 97.42857821 -158.32080078 97.37231445 C-156.47132157 97.37474744 -154.62184369 97.37847165 -152.77236938 97.38337708 C-147.78461648 97.39272164 -142.79706205 97.38341437 -137.80932474 97.37004495 C-132.56598826 97.35865632 -127.3226605 97.36284374 -122.07931519 97.36479187 C-113.27501214 97.36567267 -104.47078641 97.35464064 -95.66650391 97.33618164 C-85.52078622 97.31503054 -75.3751818 97.31150269 -65.22944653 97.3177436 C-55.43012902 97.32346046 -45.63085097 97.31776348 -35.83153915 97.30657005 C-31.67962786 97.30195338 -27.52774093 97.30103743 -23.37582779 97.3031559 C-18.47553061 97.30505506 -13.57534685 97.29681125 -8.67507553 97.2810955 C-6.88820617 97.276893 -5.10132521 97.27597449 -3.31445312 97.27878571 C16.04315644 97.84178256 16.04315644 97.84178256 34 92 C37.41663214 86.87505179 36.4922753 80.97855391 36 75 C35.20242603 71.33685671 33.74937833 68.30741841 32 65 C31.53207031 64.11296387 31.53207031 64.11296387 31.0546875 63.20800781 C25.97004312 53.65546758 20.4627611 44.33915353 15 35 C13.22907807 31.96751023 11.45913828 28.93445652 9.69091797 25.90039062 C8.59031013 24.01254466 7.48786574 22.12576779 6.38330078 20.24023438 C4.93012674 17.75066307 3.49380328 15.25219155 2.0625 12.75 C1.63130859 12.0178125 1.20011719 11.285625 0.75585938 10.53125 C-2.08108218 5.51756577 -2.08108218 5.51756577 -1.66235352 2.84472656 C-1 1 -1 1 0 0 Z " fill="#B55BDA" transform="translate(334,246)"/>
<path d="M0 0 C2 0.875 2 0.875 3.125 3.4296875 C3.41375 4.23664063 3.7025 5.04359375 4 5.875 C-4.96247728 11.27452525 -13.94532048 16.63104221 -23 21.875 C-20.37209857 24.67061603 -17.89257367 26.71152025 -14.54296875 28.57421875 C-13.68445313 29.05737549 -12.8259375 29.54053223 -11.94140625 30.03833008 C-11.03261719 30.54130615 -10.12382812 31.04428223 -9.1875 31.5625 C1.76470057 37.68434899 1.76470057 37.68434899 6.54296875 40.6953125 C7.21803467 41.11852783 7.89310059 41.54174316 8.58862305 41.9777832 C9.83075145 42.76393038 11.06581399 43.56139506 12.29223633 44.37182617 C14.76285269 45.9250009 16.38190411 46.93134273 19.34350586 46.66137695 C22.42913066 45.74796849 24.79048435 44.42311473 27.53515625 42.7421875 C28.59283203 42.10023438 29.65050781 41.45828125 30.74023438 40.796875 C32.38475586 39.78367187 32.38475586 39.78367187 34.0625 38.75 C36.21960069 37.43415557 38.37715175 36.11904915 40.53515625 34.8046875 C41.59750488 34.15725586 42.65985352 33.50982422 43.75439453 32.84277344 C47.0556108 30.84128381 50.36267846 28.85146021 53.68359375 26.8828125 C54.6573999 26.30418457 55.63120605 25.72555664 56.63452148 25.12939453 C59 23.875 59 23.875 61 23.875 C58.56670823 21.14863829 55.95203085 19.60492511 52.74609375 17.87890625 C51.72708984 17.32009766 50.70808594 16.76128906 49.65820312 16.18554688 C47.50968298 15.01943072 45.35862797 13.85797297 43.20507812 12.70117188 C42.18736328 12.14107422 41.16964844 11.58097656 40.12109375 11.00390625 C39.1870874 10.49931885 38.25308105 9.99473145 37.29077148 9.47485352 C34.86406274 7.78006268 34.03035441 6.60941632 33 3.875 C33.99 2.555 34.98 1.235 36 -0.125 C40.08265387 0.46424425 42.95792164 1.79291944 46.4921875 3.89453125 C47.52730469 4.50490234 48.56242187 5.11527344 49.62890625 5.74414062 C51.23572266 6.70610352 51.23572266 6.70610352 52.875 7.6875 C54.99730589 8.94416233 57.11969949 10.20067655 59.2421875 11.45703125 C60.1791748 12.01624268 61.11616211 12.5754541 62.08154297 13.15161133 C65.36933549 15.09309764 68.68123216 16.98700247 72 18.875 C72.34901021 26.41040215 72.61476596 33.94496046 72.77718258 41.48662472 C72.85519239 44.99017879 72.96071027 48.48817386 73.1315918 51.98852539 C74.20219886 74.50737631 74.20219886 74.50737631 70.63238525 79.96636963 C67.20836462 83.18608461 63.29312418 84.81366003 58.86526489 86.23977661 C56.32324693 87.10547095 54.17377278 88.4194794 51.90625 89.84375 C50.43811312 90.68856639 48.96937244 91.53233443 47.5 92.375 C40.88145804 96.18258601 34.30649496 100.05116476 27.80664062 104.05859375 C21.48535925 107.91073773 21.48535925 107.91073773 18 108.875 C15.45825195 107.96313477 15.45825195 107.96313477 12.73828125 106.31640625 C11.713396 105.70941895 10.68851074 105.10243164 9.63256836 104.47705078 C8.5369458 103.80399902 7.44132324 103.13094727 6.3125 102.4375 C4.58251429 101.40529366 2.85250958 100.37311767 1.12141418 99.34277344 C-0.68947043 98.26218233 -2.4956735 97.17404055 -4.30175781 96.08544922 C-7.99588795 93.86733126 -11.72258177 91.70895946 -15.4609375 89.56640625 C-16.0605983 89.22265457 -16.66025909 88.87890289 -17.27809143 88.5247345 C-18.46076229 87.84734511 -19.64358535 87.17022136 -20.8265686 86.49337769 C-23.59631124 84.90840691 -26.36363694 83.31932498 -29.12890625 81.7265625 C-30.04744385 81.19885254 -30.96598145 80.67114258 -31.91235352 80.12744141 C-34 78.875 -34 78.875 -35 77.875 C-35.83455906 70.41034115 -35.92226678 62.84219639 -36.11837482 55.33668041 C-36.21114099 51.86326936 -36.34106244 48.40057095 -36.5637207 44.93286133 C-37.9620272 22.60276253 -37.9620272 22.60276253 -33.07592773 16.45352173 C-28.36030873 12.47943297 -23.12097819 9.99866217 -17.39086914 7.81269836 C-14.1838331 6.55489952 -11.34348703 4.92872814 -8.375 3.1875 C-2.16110928 -0.13506933 -2.16110928 -0.13506933 0 0 Z " fill="#F7FBFB" transform="translate(232,207.125)"/>
<path d="M0 0 C11.68279766 0.64470288 22.14853756 5.61658643 30.0625 14.25 C36.73368447 23.71877796 40.63434009 35.36921082 39 47 C34.97972484 62.0129116 26.08397999 75.41759728 16 87 C14.18285532 88.99659563 14.18285532 88.99659563 13 91 C14.32706395 94.98119186 15.87330234 95.30152259 19.53125 97.25 C20.65144531 97.8584375 21.77164063 98.466875 22.92578125 99.09375 C24.11660694 99.73025402 25.30802086 100.36565867 26.5 101 C28.82904841 102.23946101 31.1502127 103.49067939 33.46875 104.75 C34.50451172 105.30171875 35.54027344 105.8534375 36.60742188 106.421875 C39 108 39 108 40 111 C39.39752441 111.33620361 38.79504883 111.67240723 38.17431641 112.01879883 C35.32248155 113.61304433 32.47345751 115.21222789 29.625 116.8125 C28.58746582 117.39402832 27.54993164 117.97555664 26.48095703 118.57470703 C21.46875507 121.40247747 16.50323416 124.2685551 11.640625 127.34765625 C10.83157715 127.85901123 10.0225293 128.37036621 9.18896484 128.8972168 C7.67574521 129.86361461 6.17041528 130.84250846 4.67431641 131.83520508 C3.99546387 132.26857178 3.31661133 132.70193848 2.6171875 133.1484375 C2.03565918 133.53177246 1.45413086 133.91510742 0.85498047 134.31005859 C-1.81440436 135.30290955 -3.29245615 134.84330061 -6 134 C-8.04089195 132.95439424 -10.04107549 131.82762234 -12.0078125 130.6484375 C-12.57394257 130.31131744 -13.14007263 129.97419739 -13.72335815 129.62686157 C-15.52804995 128.54966358 -17.32642112 127.46236664 -19.125 126.375 C-20.30951821 125.66733628 -21.49441122 124.96029953 -22.6796875 124.25390625 C-25.00715438 122.86351227 -27.32751801 121.46235934 -29.64160156 120.04980469 C-31.86065336 118.69540233 -34.08650013 117.35206362 -36.31933594 116.02050781 C-37.82802246 115.10156738 -37.82802246 115.10156738 -39.3671875 114.1640625 C-40.2629248 113.62475098 -41.15866211 113.08543945 -42.08154297 112.52978516 C-42.71463379 112.02495605 -43.34772461 111.52012695 -44 111 C-44 110.01 -44 109.02 -44 108 C-40.35693856 105.855457 -36.70903424 103.71948041 -33.05639648 101.59130859 C-31.81446865 100.8661071 -30.57389547 100.13858055 -29.3347168 99.40869141 C-27.55347955 98.36006556 -25.76754085 97.31989288 -23.98046875 96.28125 C-22.90692139 95.65283203 -21.83337402 95.02441406 -20.72729492 94.37695312 C-18 93 -18 93 -15 93 C-12.54055004 95.48908188 -10.28977949 98.06986182 -8.02734375 100.734375 C-6.7406455 102.20689071 -5.37442741 103.60901322 -4 105 C-3.01 105 -2.02 105 -1 105 C-1.33 104.67 -1.66 104.34 -2 104 C-2.09785341 102.65455673 -2.12797985 101.30407437 -2.12939453 99.95507812 C-2.13254669 99.09748901 -2.13569885 98.2398999 -2.13894653 97.35632324 C-2.1369223 96.42404907 -2.13489807 95.4917749 -2.1328125 94.53125 C-2.13376923 93.58060669 -2.13472595 92.62996338 -2.13571167 91.6505127 C-2.13639357 89.63631118 -2.13453862 87.62210748 -2.13037109 85.60791016 C-2.12502298 82.51329645 -2.13031577 79.4188279 -2.13671875 76.32421875 C-2.13605797 74.37239551 -2.13477681 72.42057236 -2.1328125 70.46875 C-2.13483673 69.53647583 -2.13686096 68.60420166 -2.13894653 67.64367676 C-2.13421829 66.35729309 -2.13421829 66.35729309 -2.12939453 65.04492188 C-2.12859894 64.28626831 -2.12780334 63.52761475 -2.12698364 62.74597168 C-2 61 -2 61 -1 60 C-2.010625 59.731875 -3.02125 59.46375 -4.0625 59.1875 C-5.3761565 58.79552185 -6.68862917 58.3995583 -8 58 C-9.175625 57.649375 -10.35125 57.29875 -11.5625 56.9375 C-16.39385664 54.21437171 -18.9238326 51.14624474 -21 46 C-22.13036269 38.41174553 -21.24873423 31.90356024 -18 25 C-17.34 25 -16.68 25 -16 25 C-15.67 24.01 -15.34 23.02 -15 22 C-14.0409375 21.7834375 -14.0409375 21.7834375 -13.0625 21.5625 C-10.79688294 21.19895007 -10.79688294 21.19895007 -9.75 18.9375 C-9.5025 18.298125 -9.255 17.65875 -9 17 C-8.505 17.99 -8.505 17.99 -8 19 C-5.9438661 18.38996746 -5.9438661 18.38996746 -4 17 C-3.36884577 14.51832358 -3.36884577 14.51832358 -3.375 11.6875 C-3.06930693 3.06930693 -3.06930693 3.06930693 0 0 Z " fill="#2F69AB" transform="translate(253,120)"/>
<path d="M0 0 C4.73916947 0.00262361 9.47833753 0.00015922 14.21750712 -0.00138617 C22.16758908 -0.00318114 30.1176616 -0.00087466 38.06774211 0.00395441 C46.1003004 0.00877902 54.13284008 0.00877367 62.16539836 0.00395441 C138.38061418 -0.04033821 138.38061418 -0.04033821 170.19396281 0.517138 C171.19412992 0.53228323 172.19429702 0.54742846 173.22477221 0.56303263 C184.64645282 0.74532858 195.76781499 1.434866 207.07286906 3.1343255 C207.07286906 4.1243255 207.07286906 5.1143255 207.07286906 6.1343255 C199.29818972 9.70069218 191.15966624 10.32617374 182.76036906 11.2593255 C180.5620743 11.51120592 178.36416101 11.7659677 176.16657329 12.02394342 C174.18635314 12.2552509 172.2051915 12.4784557 170.22399211 12.70122004 C167.05365197 13.03845045 167.05365197 13.03845045 164.07286906 14.1343255 C162.05694506 14.34007942 160.03624269 14.50041444 158.01427531 14.6343255 C156.82382609 14.7168255 155.63337687 14.7993255 154.40685344 14.8843255 C152.53996867 15.0080755 152.53996867 15.0080755 150.63536906 15.1343255 C148.17811783 15.29771676 145.72107294 15.46424974 143.26427531 15.6343255 C141.62760905 15.74260675 141.62760905 15.74260675 139.95787883 15.8530755 C137.22094857 16.04004496 137.22094857 16.04004496 135.21857142 16.63242006 C132.73316931 17.21378534 130.40751699 17.34592423 127.8566215 17.44606256 C126.82301368 17.48735348 125.78940585 17.52864439 124.72447658 17.57118654 C123.05663301 17.62926894 123.05663301 17.62926894 121.35509562 17.68852472 C119.61496888 17.75169036 119.61496888 17.75169036 117.83968806 17.81613207 C106.07788129 18.21435548 94.32463445 18.28003121 82.55724406 18.267138 C80.31540232 18.26781516 78.07356065 18.26878857 75.83171916 18.27003717 C71.18325405 18.27149361 66.53480843 18.26942613 61.88634562 18.2646966 C55.99501192 18.25898715 50.10372368 18.26229928 44.21239161 18.26826906 C39.5998229 18.27191943 34.9872646 18.27071599 30.37469554 18.26814127 C28.20466679 18.26748501 26.03463703 18.26825356 23.86460948 18.27062082 C4.89015935 18.28679788 -14.01099542 17.65140905 -32.92713094 16.1343255 C-34.01767781 16.0518255 -35.10822469 15.9693255 -36.23181844 15.8843255 C-41.18835123 15.49652832 -46.02469194 14.97062392 -50.92713094 14.1343255 C-53.09307007 14.03384379 -55.25993938 13.95266037 -57.42713094 13.8843255 C-70.68869394 13.2783751 -83.87959376 10.4469505 -96.92713094 8.1343255 C-96.92713094 7.4743255 -96.92713094 6.8143255 -96.92713094 6.1343255 C-98.24713094 6.1343255 -99.56713094 6.1343255 -100.92713094 6.1343255 C-100.92713094 5.4743255 -100.92713094 4.8143255 -100.92713094 4.1343255 C-88.79925122 0.09169893 -75.4920508 0.84248365 -62.8433907 0.58012629 C-61.88047459 0.55916399 -60.91755847 0.5382017 -59.92546308 0.51660419 C-39.94984536 0.08602383 -19.97958542 -0.01466449 0 0 Z " fill="#7BBAD4" transform="translate(202.9271309375763,60.86567449569702)"/>
<path d="M0 0 C0.33 0 0.66 0 1 0 C1.01417969 0.81984375 1.02835938 1.6396875 1.04296875 2.484375 C1.09066406 3.56203125 1.13835937 4.6396875 1.1875 5.75 C1.23970703 7.35101563 1.23970703 7.35101563 1.29296875 8.984375 C2.22049962 12.94047351 3.68807281 13.73659481 7 16 C17.0972984 19.90172515 28.04298389 19.42172689 38.67919922 19.37231445 C40.52867843 19.37474744 42.37815631 19.37847165 44.22763062 19.38337708 C49.21538352 19.39272164 54.20293795 19.38341437 59.19067526 19.37004495 C64.43401174 19.35865632 69.6773395 19.36284374 74.92068481 19.36479187 C83.72498786 19.36567267 92.52921359 19.35464064 101.33349609 19.33618164 C111.47921378 19.31503054 121.6248182 19.31150269 131.77055347 19.3177436 C141.56987098 19.32346046 151.36914903 19.31776348 161.16846085 19.30657005 C165.32037214 19.30195338 169.47225907 19.30103743 173.62417221 19.3031559 C178.52446939 19.30505506 183.42465315 19.29681125 188.32492447 19.2810955 C190.11179383 19.276893 191.89867479 19.27597449 193.68554688 19.27878571 C205.52817487 19.29457559 217.48832476 19.14779589 229 16 C228.67 16.99 228.34 17.98 228 19 C218.595 19.99 218.595 19.99 209 21 C208.67 22.98 208.34 24.96 208 27 C184.9 27 161.8 27 138 27 C138 27.33 138 27.66 138 28 C164.73 28.33 191.46 28.66 219 29 C219 29.66 219 30.32 219 31 C213.66850825 32.76763868 209.04815455 33.28994814 203.45205688 33.26742554 C202.19925967 33.27422221 202.19925967 33.27422221 200.92115343 33.28115618 C198.13569241 33.29376828 195.35042773 33.29218183 192.56494141 33.29052734 C190.56195831 33.29651489 188.55897752 33.30332096 186.55599976 33.31088257 C181.12154947 33.32853431 175.6871622 33.33323782 170.25268602 33.33451414 C166.85122432 33.33593764 163.44977852 33.34021119 160.04832077 33.34550858 C148.16322568 33.36401154 136.27817542 33.37217953 124.39306641 33.37060547 C113.34655665 33.36940648 102.30024305 33.39046042 91.25378287 33.4220928 C81.74771292 33.44833555 72.24170668 33.4589693 62.73560083 33.45769465 C57.06826849 33.45718703 51.40111023 33.46275781 45.73381424 33.48405075 C40.3935926 33.50356623 35.05370856 33.50346742 29.71347427 33.48901749 C27.7661845 33.48694416 25.81887286 33.49154088 23.87162018 33.5037384 C14.57535852 33.55814171 5.67298452 33.30045654 -3.42056274 31.21963501 C-4.10165143 31.06457249 -4.78274012 30.90950997 -5.48446786 30.74974859 C-10.05314566 29.56917493 -13.25830916 27.75673843 -17 25 C-16.34 24.67 -15.68 24.34 -15 24 C-14.00871094 24.47050781 -13.01742187 24.94101562 -11.99609375 25.42578125 C-7.38351984 27.52697191 -3.05023791 27.33542531 1.9375 27.1875 C2.81212891 27.17396484 3.68675781 27.16042969 4.58789062 27.14648438 C6.72553086 27.11144109 8.86284984 27.05764541 11 27 C10.505 26.21625 10.01 25.4325 9.5 24.625 C8 22 8 22 8 20 C6.35 19.67 4.7 19.34 3 19 C3 18.34 3 17.68 3 17 C2.34 17 1.68 17 1 17 C-0.53266582 13.93466836 -0.10276471 10.73245728 -0.0625 7.375 C-0.05798828 6.66859375 -0.05347656 5.9621875 -0.04882812 5.234375 C-0.03703875 3.48954725 -0.01910324 1.744763 0 0 Z " fill="#BC77E3" transform="translate(137,324)"/>
<path d="M0 0 C0 5.61 0 11.22 0 17 C-1.98 17.99 -3.96 18.98 -6 20 C-6.33 19.67 -6.66 19.34 -7 19 C-7.433125 19.433125 -7.86625 19.86625 -8.3125 20.3125 C-8.869375 20.869375 -9.42625 21.42625 -10 22 C-10.515625 22.556875 -11.03125 23.11375 -11.5625 23.6875 C-13 25 -13 25 -15 25 C-15.144375 25.94875 -15.28875 26.8975 -15.4375 27.875 C-16 31 -16 31 -17 33 C-17.7002798 40.06282202 -18.0149369 46.54823008 -13.609375 52.4140625 C-8.36006058 57.58693059 -2.13691023 58.66958749 5 59 C4.01 59.66 3.02 60.32 2 61 C1.52606438 62.92902828 1.52606438 62.92902828 1.56762695 65.17431641 C1.54783279 66.03505768 1.52803864 66.89579895 1.50764465 67.78262329 C1.50125473 68.71287323 1.49486481 69.64312317 1.48828125 70.6015625 C1.47033005 71.55316254 1.45237885 72.50476257 1.43388367 73.48519897 C1.37959751 76.5317539 1.34582641 79.57815057 1.3125 82.625 C1.27934308 84.68752212 1.24485496 86.75002329 1.20898438 88.8125 C1.12386056 93.8748861 1.05713696 98.93722378 1 104 C1.99 104.495 1.99 104.495 3 105 C2.01 105.66 1.02 106.32 0 107 C-6.88865827 100.37020572 -13.13776351 93.55945637 -19 86 C-19.4345752 85.44715332 -19.86915039 84.89430664 -20.31689453 84.32470703 C-25.87556043 77.21395893 -30.81743567 69.97520516 -35.0625 62 C-35.43246094 61.30632324 -35.80242187 60.61264648 -36.18359375 59.89794922 C-41.24069773 50.05228108 -42.98470385 39.54010256 -40.125 28.67578125 C-35.19650237 16.01408174 -27.30575394 8.88573761 -15.8125 2.125 C-10.52686273 0.01074509 -5.66732836 0 0 0 Z " fill="#203372" transform="translate(250,120)"/>
<path d="M0 0 C7.34647552 3.14848951 10.111609 8.22491123 14 15 C14.91332536 16.5436485 15.82991388 18.08537166 16.75 19.625 C17.23210937 20.43453125 17.71421875 21.2440625 18.2109375 22.078125 C23.58524769 30.85538269 29.27534555 39.4483557 35 48 C60.17456466 85.60644845 60.17456466 85.60644845 60.1875 102.5 C60.19974609 103.34175781 60.21199219 104.18351562 60.22460938 105.05078125 C60.23494821 109.42755619 60.21374886 113.08515991 58 117 C54.78548731 118.60725635 51.56387464 118.05748185 48 118 C48 117.67 48 117.34 48 117 C49.11375 116.7525 50.2275 116.505 51.375 116.25 C54.9392869 115.37716808 54.9392869 115.37716808 56.375 113.3125 C57.20725538 110.23315511 57.63472401 107.16572523 58 104 C57.319375 104.495 56.63875 104.99 55.9375 105.5 C52.34751553 107.33318356 50.00377493 107.06786059 46 107 C43.92759803 107.43816499 41.90845085 107.99075872 39.8671875 108.5546875 C37.54522015 109.10846214 35.37603121 109.14850195 33 109 C33.495 107.515 33.495 107.515 34 106 C33.01 106.66 32.02 107.32 31 108 C28.09763712 108.15562085 25.29721007 108.19298461 22.39770508 108.13525391 C21.08031593 108.12106163 21.08031593 108.12106163 19.73631287 108.10658264 C16.83050842 108.07287824 13.92512831 108.02477017 11.01953125 107.9765625 C9.00600802 107.95039814 6.99247294 107.92513091 4.97892761 107.90072632 C-0.32305881 107.83404836 -5.6247965 107.75516125 -10.92657471 107.67376709 C-16.33571824 107.59287343 -21.74500778 107.52347687 -27.15429688 107.453125 C-37.76970628 107.31336261 -48.38488847 107.16070713 -59 107 C-59 106.01 -59 105.02 -59 104 C-36.23 104 -13.46 104 10 104 C10.66 102.35 11.32 100.7 12 99 C14.828125 98.07421875 14.828125 98.07421875 18.25 97.6875 C19.36890625 97.54699219 20.4878125 97.40648437 21.640625 97.26171875 C24.77831433 97.01727086 27.85454273 96.94757571 31 97 C31.268125 96.4225 31.53625 95.845 31.8125 95.25 C33 93 33 93 34.546875 91.2734375 C37.8559325 86.09636366 36.72125125 78.28399505 35.44921875 72.4921875 C34.4831121 69.86401111 33.31023719 67.4771672 32 65 C31.53207031 64.11296387 31.53207031 64.11296387 31.0546875 63.20800781 C25.97004312 53.65546758 20.4627611 44.33915353 15 35 C13.22907807 31.96751023 11.45913828 28.93445652 9.69091797 25.90039062 C8.59031013 24.01254466 7.48786574 22.12576779 6.38330078 20.24023438 C4.93012674 17.75066307 3.49380328 15.25219155 2.0625 12.75 C1.63130859 12.0178125 1.20011719 11.285625 0.75585938 10.53125 C-2.08108218 5.51756577 -2.08108218 5.51756577 -1.66235352 2.84472656 C-1 1 -1 1 0 0 Z " fill="#9E71DA" transform="translate(334,246)"/>
<path d="M0 0 C4.66666667 4.66666667 9.33333333 9.33333333 14 14 C17.33435305 12.58143752 19.19565826 10.90068437 21.5 8.125 C23.89758153 5.28915088 26.31779415 2.57491762 29 0 C29.44085938 0.31710938 29.88171875 0.63421875 30.3359375 0.9609375 C36.61063107 5.31235335 43.21480508 8.93503662 49.96630859 12.48388672 C50.73023926 12.89525879 51.49416992 13.30663086 52.28125 13.73046875 C52.97283203 14.09551514 53.66441406 14.46056152 54.37695312 14.83666992 C56 16 56 16 57 19 C56.39752441 19.33620361 55.79504883 19.67240723 55.17431641 20.01879883 C52.32248155 21.61304433 49.47345751 23.21222789 46.625 24.8125 C45.58746582 25.39402832 44.54993164 25.97555664 43.48095703 26.57470703 C38.46875507 29.40247747 33.50323416 32.2685551 28.640625 35.34765625 C27.83157715 35.85901123 27.0225293 36.37036621 26.18896484 36.8972168 C24.67574521 37.86361461 23.17041528 38.84250846 21.67431641 39.83520508 C20.99546387 40.26857178 20.31661133 40.70193848 19.6171875 41.1484375 C19.03565918 41.53177246 18.45413086 41.91510742 17.85498047 42.31005859 C15.18559564 43.30290955 13.70754385 42.84330061 11 42 C8.95910805 40.95439424 6.95892451 39.82762234 4.9921875 38.6484375 C4.42605743 38.31131744 3.85992737 37.97419739 3.27664185 37.62686157 C1.47195005 36.54966358 -0.32642112 35.46236664 -2.125 34.375 C-3.30951821 33.66733628 -4.49441122 32.96029953 -5.6796875 32.25390625 C-8.00715438 30.86351227 -10.32751801 29.46235934 -12.64160156 28.04980469 C-14.86065336 26.69540233 -17.08650013 25.35206362 -19.31933594 24.02050781 C-20.32512695 23.40788086 -21.33091797 22.79525391 -22.3671875 22.1640625 C-23.2629248 21.62475098 -24.15866211 21.08543945 -25.08154297 20.52978516 C-25.71463379 20.02495605 -26.34772461 19.52012695 -27 19 C-27 18.01 -27 17.02 -27 16 C-26.21761963 15.55084229 -25.43523926 15.10168457 -24.62915039 14.63891602 C-21.73421244 12.97595821 -18.84009701 11.31158703 -15.9465332 9.64624023 C-14.69263 8.92496561 -13.43839908 8.2042604 -12.18383789 7.48413086 C-10.38341747 6.450543 -8.58417519 5.41493106 -6.78515625 4.37890625 C-5.70113525 3.7557251 -4.61711426 3.13254395 -3.50024414 2.49047852 C-1.14058329 1.22234919 -1.14058329 1.22234919 0 0 Z " fill="#72B1D1" transform="translate(236,212)"/>
<path d="M0 0 C6.58189249 3.22681707 13.06013427 6.48319642 19.3125 10.3125 C20.42238281 10.98925781 21.53226563 11.66601562 22.67578125 12.36328125 C23.29525635 12.76957764 23.91473145 13.17587402 24.55297852 13.59448242 C26.63097683 14.78804087 28.57523307 15.6532479 30.78881836 16.5402832 C35.06570285 18.4138354 39.02692672 20.29812721 42 24 C44.44029325 30.82660707 43.40600948 38.46767527 42.9375 45.5625 C42.86217853 47.54466956 42.79375112 49.52711381 42.73242188 51.50976562 C42.56784337 56.34666976 42.3096571 61.17030198 42 66 C39.80410058 64.92167516 37.61050888 63.83902452 35.41796875 62.75390625 C34.50041809 62.30416443 34.50041809 62.30416443 33.56433105 61.84533691 C28.1996626 59.18337036 23.18301786 56.11743547 18.1171875 52.921875 C14.27569618 50.55343674 10.33471539 48.42077544 6.33984375 46.32421875 C5.56769531 45.88722656 4.79554688 45.45023437 4 45 C3.29979736 44.67322266 2.59959473 44.34644531 1.87817383 44.00976562 C-1.22555898 40.68857383 -0.49049722 36.88889216 -0.390625 32.51953125 C-0.38496521 31.59154221 -0.37930542 30.66355316 -0.37347412 29.70744324 C-0.35107376 26.74193854 -0.30087073 23.7776398 -0.25 20.8125 C-0.22993973 18.80275182 -0.21168813 16.79298471 -0.1953125 14.78320312 C-0.15119696 9.85500371 -0.08214424 4.92770635 0 0 Z " fill="#A1D0E5" transform="translate(204,238)"/>
<path d="M0 0 C0.37289013 5.8159387 0.64378714 11.62485064 0.82397461 17.44995117 C0.89909274 19.42676966 1.00124151 21.40276297 1.1315918 23.37670898 C2.15806774 39.32935269 2.15806774 39.32935269 -1.41192627 43.74728394 C-4.92990287 46.67428594 -8.8387462 48.48259741 -13.06420898 50.16577148 C-16.18412021 51.51029622 -18.90376228 53.33781759 -21.75 55.1875 C-36.05706522 64.01902174 -36.05706522 64.01902174 -42 66 C-42.37289013 60.1840613 -42.64378714 54.37514936 -42.82397461 48.55004883 C-42.89909274 46.57323034 -43.00124151 44.59723703 -43.1315918 42.62329102 C-44.15135136 26.77502763 -44.15135136 26.77502763 -40.69381714 22.31515503 C-37.21869148 19.35951395 -33.22604139 17.60944641 -29.03622437 15.88723755 C-25.86029045 14.50339799 -23.06622852 12.69016256 -20.13671875 10.83984375 C-19.06615234 10.19208984 -17.99558594 9.54433594 -16.89257812 8.87695312 C-14.70311462 7.55206753 -12.51570254 6.22378741 -10.33007812 4.89257812 C-9.27626953 4.25642578 -8.22246094 3.62027344 -7.13671875 2.96484375 C-6.19530029 2.3937085 -5.25388184 1.82257324 -4.28393555 1.23413086 C-2 0 -2 0 0 0 Z " fill="#A9D3E6" transform="translate(297,238)"/>
<path d="M0 0 C2 1 2 1 2.9921875 3.41015625 C3.0044233 9.03250741 0.06499617 12.77664737 -2.875 17.4375 C-3.47054687 18.41235352 -4.06609375 19.38720703 -4.6796875 20.39160156 C-6.43967849 23.26960406 -8.21911517 26.13489772 -10 29 C-11.67770884 31.74340516 -13.34242928 34.49438834 -15 37.25 C-15.3594873 37.84586914 -15.71897461 38.44173828 -16.08935547 39.05566406 C-22.79365548 49.86850244 -22.79365548 49.86850244 -25.09765625 62.109375 C-25.09282227 63.24052734 -25.09282227 63.24052734 -25.08789062 64.39453125 C-25.07951172 65.17183594 -25.07113281 65.94914062 -25.0625 66.75 C-25.05798828 67.54277344 -25.05347656 68.33554687 -25.04882812 69.15234375 C-25.03708565 71.10159508 -25.01915146 73.05080738 -25 75 C-24.34 75 -23.68 75 -23 75 C-23 75.66 -23 76.32 -23 77 C-22.2575 77.020625 -21.515 77.04125 -20.75 77.0625 C-17.59352416 78.13857131 -17.277917 78.71249494 -15.6875 81.5 C-14 85 -14 85 -14 86 C-34.93166287 86.92255125 -34.93166287 86.92255125 -45 81 C-45.33 85.29 -45.66 89.58 -46 94 C-48.66228729 91.33771271 -48.31317144 89.255244 -48.38085938 85.62768555 C-48.34649645 70.58388543 -43.62311722 60.67435751 -36 48 C-35.34 48 -34.68 48 -34 48 C-33.566875 46.88625 -33.566875 46.88625 -33.125 45.75 C-32.17697356 43.43260203 -31.15154089 41.22082885 -30 39 C-29.34 39 -28.68 39 -28 39 C-27.75765625 38.30390625 -27.5153125 37.6078125 -27.265625 36.890625 C-25.78486691 33.50864665 -23.88739091 30.75979536 -21.75 27.75 C-20.94078766 26.60199829 -20.13219635 25.45355857 -19.32421875 24.3046875 C-18.92895996 23.74491211 -18.53370117 23.18513672 -18.12646484 22.60839844 C-15.68234457 19.11861422 -13.3471376 15.5553363 -11 12 C-9 9 -9 9 -6 8 C-4.33410763 6.14188287 -4.33410763 6.14188287 -2.8125 3.9375 C-2.28269531 3.20402344 -1.75289062 2.47054688 -1.20703125 1.71484375 C-0.80871094 1.14894531 -0.41039062 0.58304687 0 0 Z " fill="#A870DA" transform="translate(163,266)"/>
<path d="M0 0 C5.67413331 2.49372738 10.19570524 6.2672187 13.1796875 11.734375 C15.12632004 17.11078868 15.17030488 22.29676056 12.890625 27.5625 C9.93435869 32.39424708 6.59463231 36.45167002 1 38 C-5.72332828 38.78774691 -12.21276142 38.81957746 -18 35 C-22.68267355 30.33818469 -24.40489341 25.963018 -24.625 19.375 C-24.32682197 14.03885576 -23.8909608 9.85084781 -20 6 C-13.94858899 1.05286107 -7.84498017 -1.84881698 0 0 Z " fill="#F9FAFB" transform="translate(256,140)"/>
<path d="M0 0 C0.33 0 0.66 0 1 0 C1.01417969 0.81984375 1.02835938 1.6396875 1.04296875 2.484375 C1.09066406 3.56203125 1.13835937 4.6396875 1.1875 5.75 C1.22230469 6.81734375 1.25710937 7.8846875 1.29296875 8.984375 C2.22049962 12.94047351 3.68807281 13.73659481 7 16 C17.0972984 19.90172515 28.04298389 19.42172689 38.67919922 19.37231445 C40.52867843 19.37474744 42.37815631 19.37847165 44.22763062 19.38337708 C49.21538352 19.39272164 54.20293795 19.38341437 59.19067526 19.37004495 C64.43401174 19.35865632 69.6773395 19.36284374 74.92068481 19.36479187 C83.72498786 19.36567267 92.52921359 19.35464064 101.33349609 19.33618164 C111.47921378 19.31503054 121.6248182 19.31150269 131.77055347 19.3177436 C141.56987098 19.32346046 151.36914903 19.31776348 161.16846085 19.30657005 C165.32037214 19.30195338 169.47225907 19.30103743 173.62417221 19.3031559 C178.52446939 19.30505506 183.42465315 19.29681125 188.32492447 19.2810955 C190.11179383 19.276893 191.89867479 19.27597449 193.68554688 19.27878571 C205.52817487 19.29457559 217.48832476 19.14779589 229 16 C228.67 16.99 228.34 17.98 228 19 C218.595 19.99 218.595 19.99 209 21 C209 21.66 209 22.32 209 23 C206.11584117 24.44207941 203.58278472 24.09394887 200.375 24.0625 C199.18648437 24.05347656 197.99796875 24.04445313 196.7734375 24.03515625 C195.85820312 24.02355469 194.94296875 24.01195312 194 24 C194 24.66 194 25.32 194 26 C187.29631378 26.02564096 180.59264049 26.04298715 173.88891602 26.05493164 C171.61482267 26.05991833 169.34073245 26.06671009 167.06665039 26.07543945 C163.77229024 26.08775617 160.47797296 26.09328505 157.18359375 26.09765625 C155.69199989 26.10539818 155.69199989 26.10539818 154.17027283 26.11329651 C148.89852064 26.11370286 143.7052708 25.91965454 138.45043945 25.4934082 C127.79970247 24.73440589 117.1391406 24.92275051 106.46743011 24.98596573 C102.54202635 25.00819387 98.61667217 25.02213599 94.69122314 25.03366089 C83.54229095 25.06684237 72.39343863 25.1090688 61.24462891 25.17138672 C54.39982796 25.20955124 47.55510521 25.23201944 40.71021271 25.24569321 C38.10579391 25.25375888 35.50138627 25.26738368 32.89702606 25.28662491 C29.27336902 25.31296873 25.65010774 25.32098387 22.02636719 25.32470703 C20.40878761 25.34324234 20.40878761 25.34324234 18.75852966 25.3621521 C17.28293327 25.35813385 17.28293327 25.35813385 15.77752686 25.35403442 C14.49457796 25.36013072 14.49457796 25.36013072 13.18571091 25.36635017 C10.51216362 24.91823304 9.60923784 24.14699003 8 22 C8 21.34 8 20.68 8 20 C6.35 19.67 4.7 19.34 3 19 C3 18.34 3 17.68 3 17 C2.34 17 1.68 17 1 17 C-0.53266582 13.93466836 -0.10276471 10.73245728 -0.0625 7.375 C-0.05798828 6.66859375 -0.05347656 5.9621875 -0.04882812 5.234375 C-0.03703875 3.48954725 -0.01910324 1.744763 0 0 Z " fill="#C48BE4" transform="translate(137,324)"/>
<path d="M0 0 C2.64 0 5.28 0 8 0 C8.33 3.96 8.66 7.92 9 12 C9.53367188 11.13375 10.06734375 10.2675 10.6171875 9.375 C16.4754429 0.43016549 16.4754429 0.43016549 20.82421875 -0.796875 C23.31581596 -0.75422284 25.57148473 -0.54755668 28 0 C26.55049595 4.35647645 24.32252888 7.31757289 21.375 10.8125 C20.55773437 11.78832031 19.74046875 12.76414062 18.8984375 13.76953125 C17.95871094 14.87361328 17.95871094 14.87361328 17 16 C20.11869605 20.93793541 23.69078569 25.40900662 27.390625 29.92578125 C29 32 29 32 29 33 C19.61741325 34.22160261 19.61741325 34.22160261 15.78125 31.32421875 C14.02414001 29.28790696 12.47432166 27.24801815 11 25 C10.34 24.01 9.68 23.02 9 22 C8.67 25.63 8.34 29.26 8 33 C5.36 33 2.72 33 0 33 C0 22.11 0 11.22 0 0 Z " fill="#323A82" transform="translate(153,375)"/>
<path d="M0 0 C16.27272727 0 16.27272727 0 22.5625 5.0625 C24 7 24 7 24 9 C23.25621094 9.70640625 22.51242187 10.4128125 21.74609375 11.140625 C18.56927761 14.44849046 16.96206149 17.63242824 15.0625 21.75 C11.00854305 30.16600315 7.4079511 37.07363912 0 43 C0 28.81 0 14.62 0 0 Z " fill="#85C6E2" transform="translate(305,237)"/>
<path d="M0 0 C0.99 0 1.98 0 3 0 C5.97 0 8.94 0 12 0 C12 8.58 12 17.16 12 26 C8.37 26 4.74 26 1 26 C0.34 26.33 -0.32 26.66 -1 27 C-4.82865998 27.17300428 -8.59208044 27.12765454 -11.66796875 24.6640625 C-15.46677763 20.09657968 -16.29262555 17.0641367 -16.21875 11.3203125 C-15.82192442 7.11112692 -14.09471302 4.2631304 -11.375 1.125 C-7.66654357 -0.63163725 -4.03036883 -0.20040508 0 0 Z M-5 8 C-7.15502531 11.23253796 -7.46856135 12.25150923 -7 16 C-5.93654948 17.98029682 -5.93654948 17.98029682 -4 19 C-0.65807308 18.75546876 0.60543557 18.39456443 3 16 C2.90304884 11.65805064 2.90304884 11.65805064 1 8 C-1.95804573 7.66659529 -1.95804573 7.66659529 -5 8 Z " fill="#323A82" transform="translate(377,382)"/>
<path d="M0 0 C13.67473234 -0.02326963 27.34945989 -0.04098914 41.02420807 -0.05181217 C47.37535812 -0.0570092 53.72649452 -0.06404847 60.07763672 -0.07543945 C66.21792229 -0.08638213 72.35819481 -0.09230073 78.49848938 -0.09487724 C80.82978012 -0.09671113 83.16107023 -0.10029181 85.49235535 -0.10573006 C112.85858475 -0.1669728 112.85858475 -0.1669728 123 1 C123.495 1.495 123.495 1.495 124 2 C126.5244907 2.12500152 129.02299617 2.18603538 131.54907227 2.20532227 C132.33925751 2.21522186 133.12944275 2.22512146 133.943573 2.23532104 C136.56781978 2.26702848 139.19208469 2.29172979 141.81640625 2.31640625 C143.63102197 2.33696781 145.4456328 2.35796406 147.26023865 2.37937927 C152.0458482 2.43468241 156.83150156 2.4840552 161.6171875 2.53222656 C166.49678464 2.58238157 171.37631785 2.63809888 176.25585938 2.69335938 C185.83718502 2.80104168 195.41856608 2.90246413 205 3 C205 3.66 205 4.32 205 5 C199.61622252 6.7948981 194.96391148 7.27923208 189.31079102 7.22705078 C188.47096176 7.22734283 187.63113251 7.22763489 186.76585388 7.22793579 C184.01176333 7.22655124 181.25794908 7.21103152 178.50390625 7.1953125 C176.58577116 7.19157926 174.66763415 7.18873375 172.74949646 7.18673706 C167.71728184 7.17912513 162.68518388 7.15949769 157.65301514 7.1373291 C152.51153135 7.116818 147.37002859 7.10772411 142.22851562 7.09765625 C132.15229268 7.07624942 122.07615607 7.04214306 112 7 C112 6.67 112 6.34 112 6 C121.9 5.505 121.9 5.505 132 5 C113.2148436 4.30849639 94.4419295 3.9015882 75.64453125 3.75390625 C74.6366946 3.74560162 73.62885796 3.73729698 72.5904808 3.72874069 C63.18497229 3.65127238 53.77943799 3.5797832 44.3737793 3.52319336 C39.16150461 3.49141843 33.94937539 3.45022563 28.73721886 3.40299797 C26.77448786 3.3870645 24.81172429 3.37470341 22.84894753 3.36609077 C20.13067218 3.35393653 17.41274454 3.32980988 14.69458008 3.30297852 C13.89837753 3.30238937 13.10217499 3.30180023 12.28184509 3.30119324 C7.80909377 3.24269618 4.21578471 2.68361674 0 1 C0 0.67 0 0.34 0 0 Z " fill="#BE71E4" transform="translate(151,350)"/>
<path d="M0 0 C2.97 0 5.94 0 9 0 C9.06058594 1.21558594 9.12117188 2.43117188 9.18359375 3.68359375 C9.26798332 5.26824228 9.3526321 6.85287702 9.4375 8.4375 C9.47681641 9.23994141 9.51613281 10.04238281 9.55664062 10.86914062 C9.4054296 14.75239561 9.4054296 14.75239561 11 18 C12.66617115 18.04063832 14.33388095 18.042721 16 18 C17.585869 14.828262 17.37866445 11.36486178 17.5625 7.875 C17.60568359 7.12089844 17.64886719 6.36679687 17.69335938 5.58984375 C17.7994832 3.72678112 17.90025001 1.86341476 18 0 C20.97 0 23.94 0 27 0 C27 8.58 27 17.16 27 26 C23.33333333 26 19.66666667 26 16 26 C14.741875 26.226875 13.48375 26.45375 12.1875 26.6875 C9.19001525 27.06218559 8.08345619 27.03338248 5.1875 25.875 C2.127822 23.25241885 0.21277729 20.94651015 -0.23901367 16.81347656 C-0.2949526 14.2650913 -0.26159892 11.73536292 -0.1875 9.1875 C-0.17396484 8.30384766 -0.16042969 7.42019531 -0.14648438 6.50976562 C-0.11129217 4.33957977 -0.05748985 2.16970967 0 0 Z " fill="#303A81" transform="translate(312,382)"/>
<path d="M0 0 C4.03297602 2.23115776 6.53820819 4.61462458 8 9 C8.54138857 13.6594918 8.43067041 17.10553068 6.375 21.375 C2.78100622 25.34730892 -0.17974589 26.80497277 -5.5 27.375 C-10.51620954 26.83754898 -13.54615974 25.22428653 -17.375 22 C-19.85931367 17.41357477 -19.74800343 13.10138338 -19 8 C-14.9585847 -0.22716687 -8.62928781 -1.42401506 0 0 Z M-9 8 C-10.50662097 11.01324195 -10.17770373 13.68286377 -10 17 C-9.34 17.66 -8.68 18.32 -8 19 C-4.93008319 18.83557723 -4.93008319 18.83557723 -2 18 C-0.56939872 15.13879744 -0.61307419 13.15989415 -1 10 C-4.11588984 7.38938959 -5.06155649 6.6871855 -9 8 Z " fill="#313982" transform="translate(301,382)"/>
<path d="M0 0 C3.91075925 1.98968453 5.57689098 3.36533646 8 7 C9.21427598 12.26186257 9.12586788 16.00883192 7 21 C3.46409965 24.9197981 -0.01420738 26.85012886 -5.3125 27.25 C-10.21489866 26.91763399 -13.48340722 25.67348168 -16.8125 22 C-19.27641956 17.85024074 -19.50791713 13.70977707 -19 9 C-15.23036366 0.27031584 -8.8443146 -1.30978853 0 0 Z M-8.3125 8.5 C-10.38388618 11.01758838 -10.38388618 11.01758838 -9.75 14.75 C-9.5025 15.8225 -9.255 16.895 -9 18 C-6.03 18.495 -6.03 18.495 -3 19 C-1.24471981 16.8552976 -1.24471981 16.8552976 0 14 C-0.3960397 10.72757736 -0.3960397 10.72757736 -2 8 C-4.80182815 6.31890311 -5.58888806 6.7333328 -8.3125 8.5 Z " fill="#313982" transform="translate(231,382)"/>
<path d="M0 0 C3.91075925 1.98968453 5.57689098 3.36533646 8 7 C9.21427598 12.26186257 9.12586788 16.00883192 7 21 C3.46409965 24.9197981 -0.01420738 26.85012886 -5.3125 27.25 C-10.21489866 26.91763399 -13.48340722 25.67348168 -16.8125 22 C-19.27641956 17.85024074 -19.50791713 13.70977707 -19 9 C-15.23036366 0.27031584 -8.8443146 -1.30978853 0 0 Z M-8.3125 8.5 C-10.38388618 11.01758838 -10.38388618 11.01758838 -9.75 14.75 C-9.5025 15.8225 -9.255 16.895 -9 18 C-6.03 18.495 -6.03 18.495 -3 19 C-1.24471981 16.8552976 -1.24471981 16.8552976 0 14 C-0.3960397 10.72757736 -0.3960397 10.72757736 -2 8 C-4.80182815 6.31890311 -5.58888806 6.7333328 -8.3125 8.5 Z " fill="#313982" transform="translate(202,382)"/>
<path d="M0 0 C7.75 -0.125 7.75 -0.125 10 1 C11.4494793 1.11767472 12.90393996 1.17689268 14.35791016 1.20532227 C15.25869293 1.22526749 16.15947571 1.24521271 17.08755493 1.26576233 C18.54855118 1.29083107 18.54855118 1.29083107 20.0390625 1.31640625 C21.03505463 1.33718735 22.03104675 1.35796844 23.05722046 1.37937927 C26.24640854 1.44489042 29.43568058 1.50376704 32.625 1.5625 C34.78386293 1.60568373 36.9427173 1.64929797 39.1015625 1.69335938 C44.4009523 1.80057336 49.70042606 1.90233685 55 2 C53.2631134 7.21065981 47.81747823 9.06154763 43.25 11.75 C41.74566406 12.67232422 41.74566406 12.67232422 40.2109375 13.61328125 C39.23898437 14.18949219 38.26703125 14.76570312 37.265625 15.359375 C35.93192871 16.15553223 35.93192871 16.15553223 34.57128906 16.96777344 C31.41271217 18.23576272 30.19897922 18.1047097 27 17 C24.83010474 15.88418306 22.70129732 14.68689806 20.60546875 13.4375 C19.71714104 12.91047485 19.71714104 12.91047485 18.81086731 12.37280273 C17.56757482 11.6331654 16.32636624 10.89001503 15.0871582 10.14355469 C13.18090115 8.99602763 11.26786833 7.86052184 9.35351562 6.7265625 C2.60669185 2.7018963 2.60669185 2.7018963 0 1 C0 0.67 0 0.34 0 0 Z " fill="#90CDE5" transform="translate(220,237)"/>
<path d="M0 0 C3.9638953 2.85400462 4.81124466 4.24497864 6 9 C3.03 9 0.06 9 -3 9 C-3 8.34 -3 7.68 -3 7 C-4.65 7 -6.3 7 -8 7 C-8 7.66 -8 8.32 -8 9 C-7.40832031 9.08636719 -6.81664062 9.17273438 -6.20703125 9.26171875 C-2.07544483 9.99637278 0.63797457 10.7465822 4.125 13.1875 C6 16 6 16 6 19.625 C4.65591398 24.16129032 4.65591398 24.16129032 2 26 C-3.12789443 27.70929814 -7.41244889 27.61738099 -12.375 25.6875 C-15 24 -15 24 -17 21 C-17 19.68 -17 18.36 -17 17 C-10.9453125 16.8046875 -10.9453125 16.8046875 -9 17 C-8.34 17.66 -7.68 18.32 -7 19 C-4.93125966 19.6425235 -4.93125966 19.6425235 -3 20 C-5.17910227 17.54765607 -6.95644187 16.45350032 -10.0625 15.4375 C-12.80368039 14.53398244 -13.90700794 14.09299206 -16 12 C-16.78152069 5.07795958 -16.78152069 5.07795958 -14.1875 1.5 C-9.4643356 -0.7226656 -5.12492563 -0.90032477 0 0 Z " fill="#313982" transform="translate(143,382)"/>
<path d="M0 0 C0 9.9 0 19.8 0 30 C-1.00938588 27.98122823 -2.01831832 25.96207536 -3 23.9296875 C-3.495 22.91261719 -3.495 22.91261719 -4 21.875 C-4.495 20.85019531 -4.495 20.85019531 -5 19.8046875 C-5.98532608 17.83081935 -5.98532608 17.83081935 -8 16 C-9.21477079 12.71297314 -10.21217204 9.41392117 -11 6 C-14.09774807 8.88411027 -16.27844328 11.79740547 -18.453125 15.421875 C-19.071875 16.44667969 -19.690625 17.47148437 -20.328125 18.52734375 C-20.96234375 19.59082031 -21.5965625 20.65429688 -22.25 21.75 C-22.8996875 22.82894531 -23.549375 23.90789062 -24.21875 25.01953125 C-25.81770625 27.67662031 -27.4112309 30.33681151 -29 33 C-31 32 -31 32 -33 29 C-33.40992188 29.5775 -33.81984375 30.155 -34.2421875 30.75 C-35.05042969 31.86375 -35.05042969 31.86375 -35.875 33 C-36.40867188 33.7425 -36.94234375 34.485 -37.4921875 35.25 C-37.98976562 35.8275 -38.48734375 36.405 -39 37 C-39.66 37 -40.32 37 -41 37 C-39.7346463 34.40226344 -38.38801263 31.91495502 -36.86328125 29.4609375 C-36.45408447 28.80222656 -36.0448877 28.14351563 -35.62329102 27.46484375 C-28.68426908 16.40169833 -28.68426908 16.40169833 -25.0625 11 C-24.53785156 10.21625 -24.01320312 9.4325 -23.47265625 8.625 C-22.98667969 8.08875 -22.50070313 7.5525 -22 7 C-21.01 7 -20.02 7 -19 7 C-19 6.34 -19 5.68 -19 5 C-17.453125 4.87625 -17.453125 4.87625 -15.875 4.75 C-11.94145423 4.25052271 -11.94145423 4.25052271 -8.9375 1.9375 C-6 0 -6 0 0 0 Z " fill="#9D85D6" transform="translate(196,238)"/>
<path d="M0 0 C8.58 0 17.16 0 26 0 C26 2.64 26 5.28 26 8 C23.36 8 20.72 8 18 8 C18 16.25 18 24.5 18 33 C15.03 33 12.06 33 9 33 C9 24.75 9 16.5 9 8 C6.03 8 3.06 8 0 8 C0 5.36 0 2.72 0 0 Z " fill="#323A81" transform="translate(254,375)"/>
<path d="M0 0 C0 7.92 0 15.84 0 24 C-2.475 23.01 -2.475 23.01 -5 22 C-7.46863939 21.56101034 -9.95007695 21.19062468 -12.4375 20.875 C-13.71496094 20.70742188 -14.99242187 20.53984375 -16.30859375 20.3671875 C-22.31350993 19.56622964 -22.31350993 19.56622964 -28 21 C-29.66500443 21.34153937 -31.33178677 21.67449498 -33 22 C-36.11785113 22.64644661 -36.11785113 22.64644661 -37 25 C-37.99 25 -38.98 25 -40 25 C-39.814375 26.03125 -39.62875 27.0625 -39.4375 28.125 C-39.02692918 31.76148442 -39.221691 34.45437009 -40 38 C-40.33 38 -40.66 38 -41 38 C-41.95667888 32.62133876 -42.23112068 28.29754958 -41 23 C-37.37674412 19.35973353 -33.20546593 17.48602506 -28.60009766 15.3046875 C-23.30038361 12.64537559 -18.27463695 9.47801342 -13.1875 6.4375 C-11.10124772 5.20095171 -9.01163847 3.9700412 -6.91796875 2.74609375 C-6.01844482 2.21685303 -5.1189209 1.6876123 -4.19213867 1.14233398 C-2 0 -2 0 0 0 Z " fill="#84C7E2" transform="translate(296,239)"/>
<path d="M0 0 C1.83324547 -0.02749868 3.6666171 -0.04661673 5.5 -0.0625 C6.5209375 -0.07410156 7.541875 -0.08570313 8.59375 -0.09765625 C12 0 12 0 15.37597656 0.5 C21.36351141 1.26702899 27.36428725 1.1281328 33.390625 1.09765625 C35.35687836 1.09258812 35.35687836 1.09258812 37.362854 1.0874176 C50.65695924 1.04150685 63.94791318 0.79685174 77.23957443 0.55446339 C102.17867967 0.10132423 127.07704774 -0.31408679 152 1 C151.67 1.66 151.34 2.32 151 3 C135.0575957 3.99307492 119.1538191 4.17926433 103.18359375 4.203125 C101.89175737 4.20595238 100.599921 4.20877975 99.26893806 4.21169281 C93.14954194 4.22503764 87.030164 4.23498818 80.91075462 4.2388947 C73.90690841 4.24339525 66.90325539 4.2610794 59.89946789 4.2898953 C53.7752074 4.31420123 47.65102636 4.32184221 41.52672005 4.32357025 C38.94288126 4.32658353 36.35904302 4.33456689 33.77523613 4.34775543 C30.16568206 4.36489142 26.55660019 4.36291892 22.94702148 4.35644531 C21.89590179 4.3656601 20.8447821 4.37487488 19.7618103 4.3843689 C12.76110483 4.34522104 6.65614872 3.15718789 0 1 C0 0.67 0 0.34 0 0 Z " fill="#C577E7" transform="translate(132,353)"/>
<path d="M0 0 C0.33 0 0.66 0 1 0 C1.01417969 0.81984375 1.02835938 1.6396875 1.04296875 2.484375 C1.09066406 3.56203125 1.13835937 4.6396875 1.1875 5.75 C1.22230469 6.81734375 1.25710937 7.8846875 1.29296875 8.984375 C2.2204834 12.94040435 3.68810917 13.73672493 7 16 C17.10409015 19.89916479 28.08763613 19.44294396 38.73364258 19.43237305 C40.58775987 19.44140701 42.44187121 19.4517382 44.29597473 19.46325684 C49.29092949 19.49066105 54.28577042 19.50008866 59.28079057 19.50611091 C64.51517575 19.51553803 69.74947734 19.54174472 74.98381042 19.56611633 C84.87858204 19.60966619 94.77333733 19.63828373 104.6681754 19.66143972 C115.94037857 19.68855332 127.21249716 19.73246089 138.48463976 19.77772844 C161.65638055 19.8704097 184.82814787 19.94216584 208 20 C208 20.33 208 20.66 208 21 C207.04555386 21.00634791 207.04555386 21.00634791 206.07182598 21.01282406 C190.59872737 21.11606943 175.12567739 21.224698 159.65265942 21.33933926 C152.17006684 21.39464838 144.6874695 21.4481266 137.20483398 21.49731445 C130.68397712 21.54018458 124.16315503 21.58646973 117.64235193 21.63687855 C114.18874064 21.66345669 110.73513614 21.68830919 107.2814846 21.70907402 C103.42873918 21.73230229 99.57607561 21.76315393 95.72338867 21.79467773 C94.57468292 21.8004332 93.42597717 21.80618866 92.24246216 21.81211853 C91.19498306 21.82190735 90.14750397 21.83169617 89.06828308 21.84178162 C87.70080319 21.85146044 87.70080319 21.85146044 86.30569744 21.8613348 C83.83912573 21.90989904 83.83912573 21.90989904 81 23 C79.24408799 23.14960207 77.48360881 23.24818714 75.72265625 23.31640625 C74.66183838 23.35846191 73.60102051 23.40051758 72.50805664 23.44384766 C70.8025061 23.50258057 70.8025061 23.50258057 69.0625 23.5625 C67.89259521 23.6042334 66.72269043 23.6459668 65.51733398 23.68896484 C51.82170665 24.14663772 38.18883136 24.24124171 24.5 23.5625 C23.70408447 23.52334473 22.90816895 23.48418945 22.08813477 23.44384766 C18.60444601 23.24603568 15.36335964 22.91783136 12 22 C12 21.01 12 20.02 12 19 C11.21753906 18.87882812 10.43507812 18.75765625 9.62890625 18.6328125 C8.61699219 18.46523438 7.60507813 18.29765625 6.5625 18.125 C5.04849609 17.88136719 5.04849609 17.88136719 3.50390625 17.6328125 C2.67761719 17.42398437 1.85132813 17.21515625 1 17 C-0.53266582 13.93466836 -0.10276471 10.73245728 -0.0625 7.375 C-0.05798828 6.66859375 -0.05347656 5.9621875 -0.04882812 5.234375 C-0.03703875 3.48954725 -0.01910324 1.744763 0 0 Z " fill="#C99FE3" transform="translate(137,324)"/>
<path d="M0 0 C0.93392578 0.38091797 0.93392578 0.38091797 1.88671875 0.76953125 C11.98952107 4.53166266 22.3534179 5.69158885 33 7 C34.54689757 7.19383039 36.09377462 7.38782466 37.640625 7.58203125 C39.30351562 7.78892578 39.30351562 7.78892578 41 8 C41 13.28 41 18.56 41 24 C40.01 24.495 40.01 24.495 39 25 C36.8996582 24.06298828 36.8996582 24.06298828 34.30078125 22.5703125 C33.34510254 22.02616699 32.38942383 21.48202148 31.40478516 20.92138672 C30.38433105 20.3285791 29.36387695 19.73577148 28.3125 19.125 C27.27915527 18.53090332 26.24581055 17.93680664 25.18115234 17.32470703 C23.09541131 16.12233103 21.0120548 14.91580876 18.93115234 13.70507812 C16.35172667 12.20460262 13.76505616 10.71775042 11.17578125 9.234375 C9.82475159 8.44923887 8.47442797 7.66288581 7.125 6.875 C6.19941284 6.34543701 6.19941284 6.34543701 5.25512695 5.80517578 C1.11568852 3.34706555 1.11568852 3.34706555 0 0 Z " fill="#BEDCEA" transform="translate(204,278)"/>
<path d="M0 0 C1.67736027 0.01017814 3.35472357 0.01986778 5.03208923 0.02911377 C9.52684946 0.05524166 14.021537 0.08808727 18.51624227 0.12226367 C23.23536649 0.15696256 27.95452908 0.18531053 32.6736908 0.21437073 C41.58381529 0.2701838 50.49389175 0.33159786 59.40396446 0.39509207 C69.55891383 0.46717962 79.71390131 0.5329199 89.8688966 0.59816253 C110.73418046 0.73235574 131.5994046 0.87440449 152.46459961 1.02172852 C152.46459961 1.35172852 152.46459961 1.68172852 152.46459961 2.02172852 C112.46087043 2.93151086 72.46178288 3.13403967 32.44852829 3.14511108 C28.58987932 3.1467284 24.73123627 3.15029012 20.87258911 3.15429688 C14.71263795 3.16017522 8.55271158 3.16035807 2.39275932 3.15604782 C0.09507701 3.15505376 -2.20260659 3.15563242 -4.50028801 3.15788651 C-7.68112479 3.16044968 -10.86189287 3.15661415 -14.04272461 3.15112305 C-14.962984 3.1531498 -15.88324339 3.15517654 -16.83138943 3.15726471 C-22.78634215 3.13798919 -28.62171873 2.71825586 -34.53540039 2.02172852 C-34.53540039 1.69172852 -34.53540039 1.36172852 -34.53540039 1.02172852 C-23.00169873 0.21129427 -11.55942045 -0.09866396 0 0 Z " fill="#BE3AD7" transform="translate(200.535400390625,364.978271484375)"/>
<path d="M0 0 C2.97 0 5.94 0 9 0 C9 0.66 9 1.32 9 2 C9.99 1.34 10.98 0.68 12 0 C14.6875 -0.125 14.6875 -0.125 17 0 C17 2.97 17 5.94 17 9 C14.69 9.66 12.38 10.32 10 11 C9.67 15.95 9.34 20.9 9 26 C6.03 26 3.06 26 0 26 C0 17.42 0 8.84 0 0 Z " fill="#323A81" transform="translate(343,382)"/>
<path d="M0 0 C2.64 0 5.28 0 8 0 C8 11.22 8 22.44 8 34 C5.36 34 2.72 34 0 34 C0 22.78 0 11.56 0 0 Z " fill="#323A81" transform="translate(243,374)"/>
<path d="M0 0 C2.64 0 5.28 0 8 0 C8 10.89 8 21.78 8 33 C5.36 33 2.72 33 0 33 C0 22.11 0 11.22 0 0 Z " fill="#323A81" transform="translate(114,375)"/>
<path d="M0 0 C13.67473234 -0.02326963 27.34945989 -0.04098914 41.02420807 -0.05181217 C47.37535812 -0.0570092 53.72649452 -0.06404847 60.07763672 -0.07543945 C66.21792229 -0.08638213 72.35819481 -0.09230073 78.49848938 -0.09487724 C80.82978012 -0.09671113 83.16107023 -0.10029181 85.49235535 -0.10573006 C115.23519751 -0.17229141 115.23519751 -0.17229141 123 1 C123.495 1.99 123.495 1.99 124 3 C108.71835223 3.04675171 93.43670776 3.08200439 78.1550045 3.10362434 C71.05920392 3.11393035 63.96344781 3.12797775 56.86767578 3.15087891 C50.02069298 3.17296655 43.17375644 3.18456701 36.32674026 3.18975449 C33.71365252 3.19345165 31.10056732 3.20067119 28.48749924 3.21146011 C24.82933828 3.22596422 21.17136864 3.22797836 17.51318359 3.22705078 C15.89046036 3.23783661 15.89046036 3.23783661 14.23495483 3.24884033 C9.09159735 3.23471535 4.80804495 3.0784781 0 1 C0 0.67 0 0.34 0 0 Z " fill="#B46BDF" transform="translate(151,350)"/>
<path d="M0 0 C0 9.9 0 19.8 0 30 C-1.00938588 27.98122823 -2.01831832 25.96207536 -3 23.9296875 C-3.33 23.25164062 -3.66 22.57359375 -4 21.875 C-4.33 21.19179688 -4.66 20.50859375 -5 19.8046875 C-5.98532608 17.83081935 -5.98532608 17.83081935 -8 16 C-9.01697907 13.24817429 -9.87988836 10.55551634 -10.5 7.6875 C-10.665 7.130625 -10.83 6.57375 -11 6 C-11.66 5.67 -12.32 5.34 -13 5 C-6.87096774 0 -6.87096774 0 0 0 Z " fill="#8ECCE6" transform="translate(196,238)"/>
<path d="M0 0 C1.83324547 -0.02749868 3.6666171 -0.04661673 5.5 -0.0625 C6.5209375 -0.07410156 7.541875 -0.08570313 8.59375 -0.09765625 C12 0 12 0 15.49414062 0.48632812 C20.819059 1.17121403 26.13738285 1.22943823 31.5 1.31640625 C32.57628662 1.33718735 33.65257324 1.35796844 34.76147461 1.37937927 C38.17425615 1.44437179 41.58710972 1.50352425 45 1.5625 C47.32422597 1.60573313 49.64844487 1.6493489 51.97265625 1.69335938 C57.64836302 1.8000011 63.32414024 1.90185764 69 2 C66.41904926 4.58095074 65.39614189 4.25738192 61.80688477 4.2746582 C60.72137833 4.28419022 59.63587189 4.29372223 58.51747131 4.30354309 C56.74731911 4.30217598 56.74731911 4.30217598 54.94140625 4.30078125 C53.72734604 4.30506638 52.51328583 4.3093515 51.26243591 4.31376648 C48.68415958 4.31952195 46.10586701 4.32000114 43.52758789 4.31567383 C39.60989965 4.31253794 35.69298407 4.33587476 31.77539062 4.36132812 C29.26823011 4.3636036 26.76106758 4.36430346 24.25390625 4.36328125 C22.51108116 4.37709587 22.51108116 4.37709587 20.73304749 4.39118958 C13.37821039 4.35006135 6.98453415 3.31635031 0 1 C0 0.67 0 0.34 0 0 Z " fill="#CF84EA" transform="translate(132,353)"/>
<path d="M0 0 C1 3 1 3 0 6 C-0.66 6 -1.32 6 -2 6 C-2.33 7.65 -2.66 9.3 -3 11 C-3.66 11 -4.32 11 -5 11 C-5.08378906 11.70769531 -5.16757813 12.41539062 -5.25390625 13.14453125 C-6.17155073 16.65656328 -7.75658692 18.79670563 -9.9375 21.6875 C-11.00291016 23.11642578 -11.00291016 23.11642578 -12.08984375 24.57421875 C-14 27 -14 27 -16 29 C-15.4462522 23.89545207 -12.97407204 20.03424443 -10.4375 15.6875 C-10.01275391 14.94693359 -9.58800781 14.20636719 -9.15039062 13.44335938 C-8.10648347 11.62531882 -7.05407808 9.81216252 -6 8 C-5.34 8 -4.68 8 -4 8 C-3.71125 7.236875 -3.4225 6.47375 -3.125 5.6875 C-2 3 -2 3 0 0 Z " fill="#A384CD" transform="translate(133,306)"/>
<path d="M0 0 C2.61973192 2.34397066 4.06926039 4.73488754 5.625 7.875 C6.05039062 8.71804688 6.47578125 9.56109375 6.9140625 10.4296875 C9.33330537 16.1558091 9.12180002 21.69547514 9.0625 27.8125 C9.05798828 28.69615234 9.05347656 29.57980469 9.04882812 30.49023438 C9.03709866 32.66018559 9.01916495 34.83010172 9 37 C8.67 37 8.34 37 8 37 C7.9498877 36.44127197 7.89977539 35.88254395 7.84814453 35.30688477 C7.61309799 32.72483727 7.36909441 30.14370726 7.125 27.5625 C7.04636719 26.68400391 6.96773438 25.80550781 6.88671875 24.90039062 C6.33280099 19.12686317 5.3650863 13.63815054 4 8 C3.34 8 2.68 8 2 8 C0.23537317 4.91190305 0 3.76687864 0 0 Z " fill="#8E78BA" transform="translate(385,321)"/>
<path d="M0 0 C3.99965893 3.726785 6.66932758 8.37814942 9.625 12.9375 C10.223125 13.84435547 10.82125 14.75121094 11.4375 15.68554688 C12.00726563 16.56146484 12.57703125 17.43738281 13.1640625 18.33984375 C13.68436035 19.13769287 14.2046582 19.93554199 14.74072266 20.75756836 C15.9292253 22.87396943 16.55202782 24.62832278 17 27 C16.34 27 15.68 27 15 27 C15 26.01 15 25.02 15 24 C14.01 23.67 13.02 23.34 12 23 C10.94535351 21.0282696 9.95394836 19.02237052 9 17 C7.29586468 14.330188 5.55370199 11.7261406 3.6328125 9.20703125 C3.17648437 8.60246094 2.72015625 7.99789063 2.25 7.375 C1.82203125 6.82585937 1.3940625 6.27671875 0.953125 5.7109375 C0 4 0 4 0 0 Z " fill="#8D7BC0" transform="translate(368,294)"/>
<path d="M0 0 C0.99 0.33 1.98 0.66 3 1 C3 1.66 3 2.32 3 3 C2.26394531 3.69480469 1.52789062 4.38960937 0.76953125 5.10546875 C-2.59280181 8.3349689 -4.34620296 12.13738351 -6.3125 16.3125 C-6.67150391 17.05306641 -7.03050781 17.79363281 -7.40039062 18.55664062 C-8.27619585 20.36663808 -9.13940791 22.18271993 -10 24 C-10.33 24 -10.66 24 -11 24 C-10.67422369 16.83292123 -7.34556372 11.23072876 -4 5 C-3.34 5 -2.68 5 -2 5 C-2 3.68 -2 2.36 -2 1 C-1.34 0.67 -0.68 0.34 0 0 Z " fill="#9FD0E6" transform="translate(326,243)"/>
<path d="M0 0 C0.66 0.33 1.32 0.66 2 1 C0.47987323 6.40489519 -3.27385218 9.98492628 -7 14 C-8.24270671 11.51458657 -7.95365685 10.23584621 -7.625 7.5 C-7.53476562 6.7059375 -7.44453125 5.911875 -7.3515625 5.09375 C-7 3 -7 3 -6 1 C-5.34 1 -4.68 1 -4 1 C-3.67 1.66 -3.34 2.32 -3 3 C-2.34 3 -1.68 3 -1 3 C-0.67 2.01 -0.34 1.02 0 0 Z " fill="#A0CEE4" transform="translate(313,266)"/>
<path d="M0 0 C0.08076963 2.45898655 0.14037143 4.91533742 0.1875 7.375 C0.22520508 8.42300781 0.22520508 8.42300781 0.26367188 9.4921875 C0.29296875 11.5234375 0.29296875 11.5234375 0 15 C-3.08888522 17.05925681 -3.70935927 17.2390374 -7.1875 17.125 C-8.445625 17.08375 -9.70375 17.0425 -11 17 C-11 16.67 -11 16.34 -11 16 C-9.88625 15.7525 -8.7725 15.505 -7.625 15.25 C-4.0607131 14.37716808 -4.0607131 14.37716808 -2.625 12.3125 C-1.79274462 9.23315511 -1.36527599 6.16572523 -1 3 C-3.475 4.485 -3.475 4.485 -6 6 C-6.66 5.34 -7.32 4.68 -8 4 C-2.25 0 -2.25 0 0 0 Z " fill="#AE80D2" transform="translate(393,347)"/>
<path d="M0 0 C-0.33 1.32 -0.66 2.64 -1 4 C-1.70125 4.020625 -2.4025 4.04125 -3.125 4.0625 C-6.91058602 5.29693022 -8.30159966 7.40077844 -10.66796875 10.50390625 C-11.10753906 10.99761719 -11.54710937 11.49132812 -12 12 C-12.66 12 -13.32 12 -14 12 C-12.76067171 8.56801397 -11.49698489 5.69674368 -9 3 C-8.01 3 -7.02 3 -6 3 C-6 2.34 -6 1.68 -6 1 C-4 0 -4 0 0 0 Z " fill="#8488D2" transform="translate(183,242)"/>
<path d="M0 0 C0.33 0.66 0.66 1.32 1 2 C1.99 2.33 2.98 2.66 4 3 C5.1875 6.5625 5.1875 6.5625 6 10 C6.66 10 7.32 10 8 10 C9.60725635 13.21451269 9.05748185 16.43612536 9 20 C7.98678427 17.98261511 6.98190204 15.96253157 6 13.9296875 C5.67 13.25164062 5.34 12.57359375 5 11.875 C4.67 11.19179688 4.34 10.50859375 4 9.8046875 C3.01467392 7.83081935 3.01467392 7.83081935 1 6 C0.60235737 4.01178687 0.26224651 2.01055661 0 0 Z " fill="#A8D6E9" transform="translate(187,248)"/>
<path d="M0 0 C0.66 0.33 1.32 0.66 2 1 C1.40165275 5.14298667 -0.00664285 8.18194377 -2.0625 11.8125 C-2.61035156 12.78832031 -3.15820312 13.76414062 -3.72265625 14.76953125 C-4.35494141 15.87361328 -4.35494141 15.87361328 -5 17 C-5.33 17 -5.66 17 -6 17 C-6.042721 15.33388095 -6.04063832 13.66617115 -6 12 C-5.67 11.67 -5.34 11.34 -5 11 C-5 10.01 -5 9.02 -5 8 C-3.69254251 6.31295807 -2.35827971 4.64639965 -1 3 C-0.67 2.01 -0.34 1.02 0 0 Z " fill="#6191B0" transform="translate(407,85)"/>
<path d="M0 0 C1.32 0.66 2.64 1.32 4 2 C2.78184562 6.68520915 1.30440013 10.70543612 -1 15 C-2.125 13.25 -2.125 13.25 -3 11 C-1.94423208 7.92867513 0.00491999 5.53919275 2 3 C1.34 3 0.68 3 0 3 C0 2.01 0 1.02 0 0 Z " fill="#5886AD" transform="translate(415,64)"/>
<path d="M0 0 C4.66714289 1.83025211 8.18765077 3.6497537 12 7 C11.67 7.66 11.34 8.32 11 9 C9.35 8.01 7.7 7.02 6 6 C5.01 6.66 4.02 7.32 3 8 C0 3.375 0 3.375 0 0 Z " fill="#7783CD" transform="translate(328,241)"/>
<path d="M0 0 C-0.8125 1.9375 -0.8125 1.9375 -2 4 C-2.99 4.33 -3.98 4.66 -5 5 C-5.33 5.66 -5.66 6.32 -6 7 C-6.99 7 -7.98 7 -9 7 C-8.814375 8.03125 -8.62875 9.0625 -8.4375 10.125 C-8.02692918 13.76148442 -8.221691 16.45437009 -9 20 C-9.33 20 -9.66 20 -10 20 C-11.22204139 6.50662637 -11.22204139 6.50662637 -8.2890625 2.890625 C-5.53712333 1.20170927 -3.26319512 0 0 0 Z " fill="#92C9DF" transform="translate(265,257)"/>
<path d="M0 0 C1.25348607 2.95106435 1.01044806 3.97406463 -0.21484375 7.015625 C-1.06755859 8.61664063 -1.06755859 8.61664063 -1.9375 10.25 C-2.50339844 11.32765625 -3.06929688 12.4053125 -3.65234375 13.515625 C-4.09707031 14.33546875 -4.54179687 15.1553125 -5 16 C-6.17578125 14.35546875 -6.17578125 14.35546875 -7 12 C-5.91796875 9.23828125 -5.91796875 9.23828125 -4.1875 6.3125 C-3.62417969 5.33925781 -3.06085938 4.36601562 -2.48046875 3.36328125 C-1 1 -1 1 0 0 Z " fill="#77A5C9" transform="translate(357,182)"/>
<path d="M0 0 C0.66 0.66 1.32 1.32 2 2 C3.65 1.34 5.3 0.68 7 0 C7 0.99 7 1.98 7 3 C6.32453125 3.26554688 5.6490625 3.53109375 4.953125 3.8046875 C4.06109375 4.15789062 3.1690625 4.51109375 2.25 4.875 C1.36828125 5.22304687 0.4865625 5.57109375 -0.421875 5.9296875 C-5.00738587 7.54242275 -5.00738587 7.54242275 -8 11 C-8 10.01 -8 9.02 -8 8 C-7.34 8 -6.68 8 -6 8 C-5.67 7.01 -5.34 6.02 -5 5 C-2.9375 4.3125 -2.9375 4.3125 -1 4 C-0.67 2.68 -0.34 1.36 0 0 Z " fill="#395B93" transform="translate(243,137)"/>
<path d="M0 0 C0.33 0 0.66 0 1 0 C1 6.6 1 13.2 1 20 C1.66 20.33 2.32 20.66 3 21 C2.01 21.66 1.02 22.32 0 23 C-0.66 22.01 -1.32 21.02 -2 20 C-1.67 19.34 -1.34 18.68 -1 18 C-0.84995027 16.6265365 -0.75161994 15.2471474 -0.68359375 13.8671875 C-0.64169922 13.06152344 -0.59980469 12.25585938 -0.55664062 11.42578125 C-0.51732422 10.58402344 -0.47800781 9.74226562 -0.4375 8.875 C-0.39431641 8.02550781 -0.35113281 7.17601562 -0.30664062 6.30078125 C-0.20045764 4.20071777 -0.09971503 2.10038052 0 0 Z " fill="#191E5D" transform="translate(250,204)"/>
<path d="M0 0 C0.33 0.66 0.66 1.32 1 2 C-1.00758344 5.87176805 -3.10606424 9.71143663 -6 13 C-6.66 13 -7.32 13 -8 13 C-6.53181332 9.89257577 -4.79975 7.09528261 -2.875 4.25 C-2.33617187 3.45078125 -1.79734375 2.6515625 -1.2421875 1.828125 C-0.62730469 0.92320312 -0.62730469 0.92320312 0 0 Z " fill="#8A73B9" transform="translate(163,262)"/>
<path d="M0 0 C0.66 0 1.32 0 2 0 C1.48964169 4.3890815 0.47785723 7.33708062 -2 11 C-2.66 10.67 -3.32 10.34 -4 10 C-2.8905928 6.51329166 -1.73662334 3.22515763 0 0 Z " fill="#7BAACA" transform="translate(341,211)"/>
<path d="M0 0 C0.66 0 1.32 0 2 0 C3 3 3 3 2.5 5.4375 C1.98666488 8.06834251 2.16441342 9.49324027 3 12 C-0.44216672 9.3401439 -0.99504674 6.09711714 -2 2 C-1.34 1.34 -0.68 0.68 0 0 Z " fill="#4D759F" transform="translate(95,64)"/>
<path d="M0 0 C3.63 0 7.26 0 11 0 C8 2 8 2 4 2 C4 2.66 4 3.32 4 4 C2.35 3.67 0.7 3.34 -1 3 C-0.67 2.01 -0.34 1.02 0 0 Z " fill="#6A97BD" transform="translate(98,63)"/>
<path d="M0 0 C1.93719378 -0.05406122 3.87481921 -0.09282025 5.8125 -0.125 C6.89144531 -0.14820312 7.97039062 -0.17140625 9.08203125 -0.1953125 C12 0 12 0 15 2 C12.36 2 9.72 2 7 2 C6.67 3.65 6.34 5.3 6 7 C5.34 7 4.68 7 4 7 C4 5.02 4 3.04 4 1 C2.68 0.67 1.36 0.34 0 0 Z " fill="#4597CC" transform="translate(246,119)"/>
<path d="M0 0 C1.41791408 0.45445964 2.83428046 0.91374944 4.25 1.375 C5.43335937 1.75785156 5.43335937 1.75785156 6.640625 2.1484375 C8.86627958 2.95173667 10.90931672 3.89711662 13 5 C10.58292094 5.85276722 9.35996549 6.12087895 6.89453125 5.29296875 C6.20746094 4.92816406 5.52039063 4.56335938 4.8125 4.1875 C4.11769531 3.83042969 3.42289062 3.47335937 2.70703125 3.10546875 C1 2 1 2 0 0 Z " fill="#C978EB" transform="translate(120,348)"/>
<path d="M0 0 C2.91843445 2.626591 4.94517315 5.66976339 7 9 C7 9.66 7 10.32 7 11 C2.94089532 9.64696511 2.0786931 7.65563269 0 4 C0 2.68 0 1.36 0 0 Z " fill="#816DAE" transform="translate(368,294)"/>
<path d="M0 0 C4.875 0.875 4.875 0.875 6 2 C7.51165654 2.39148761 9.03469632 2.73972457 10.5625 3.0625 C11.38878906 3.23910156 12.21507812 3.41570312 13.06640625 3.59765625 C13.70449219 3.73042969 14.34257812 3.86320312 15 4 C11.82255978 5.01562016 9.62171611 4.96666643 6.375 4.25 C5.21097656 4.01023437 5.21097656 4.01023437 4.0234375 3.765625 C2 3 2 3 0 0 Z " fill="#A060C1" transform="translate(117,360)"/>
<path d="M0 0 C1 3 1 3 0 6 C-0.66 6 -1.32 6 -2 6 C-2.33 7.65 -2.66 9.3 -3 11 C-3.66 10.67 -4.32 10.34 -5 10 C-3.84414715 6.08788267 -2.64465038 3.1254959 0 0 Z " fill="#9C80C6" transform="translate(133,306)"/>
<path d="M0 0 C-1.6188996 1.03048037 -3.24532489 2.04914678 -4.875 3.0625 C-5.77992188 3.63097656 -6.68484375 4.19945312 -7.6171875 4.78515625 C-8.40351563 5.18605469 -9.18984375 5.58695312 -10 6 C-10.66 5.67 -11.32 5.34 -12 5 C-5.60587432 -1.7397541 -5.60587432 -1.7397541 0 0 Z " fill="#C1DCE5" transform="translate(279,291)"/>
<path d="M0 0 C0.6875 1.625 0.6875 1.625 1 4 C-0.4375 7.25 -0.4375 7.25 -2 10 C-3.125 8.3125 -3.125 8.3125 -4 6 C-3.25 3.3125 -3.25 3.3125 -2 1 C-1.34 0.67 -0.68 0.34 0 0 Z " fill="#678FBA" transform="translate(361,175)"/>
<path d="M0 0 C0.66 0.33 1.32 0.66 2 1 C1.04882866 2.1725131 0.08882991 3.33787015 -0.875 4.5 C-1.40867188 5.1496875 -1.94234375 5.799375 -2.4921875 6.46875 C-2.98976562 6.9740625 -3.48734375 7.479375 -4 8 C-4.66 8 -5.32 8 -6 8 C-4.73058503 4.08597051 -3.48832306 2.20927127 0 0 Z " fill="#8B7FCC" transform="translate(175,246)"/>
<path d="M0 0 C1 3 1 3 0.375 5.0625 C-1 7 -1 7 -6 9 C-4.02 6.03 -2.04 3.06 0 0 Z " fill="#8670BB" transform="translate(146,287)"/>
<path d="M0 0 C0.99 0.33 1.98 0.66 3 1 C1.02 3.31 -0.96 5.62 -3 8 C-3 4.42424104 -1.91159393 2.94704065 0 0 Z " fill="#E8E0F3" transform="translate(161,280)"/>
<path d="M0 0 C4.42857143 5.14285714 4.42857143 5.14285714 5 9 C4.01 9.495 4.01 9.495 3 10 C0.59185923 6.48812804 -0.36629408 4.27343092 0 0 Z " fill="#8078BF" transform="translate(341,251)"/>
<path d="M0 0 C0.93065133 2.60582371 1.14917407 3.64198224 0.0625 6.25 C-0.4634375 7.11625 -0.4634375 7.11625 -1 8 C-1.99 7.67 -2.98 7.34 -4 7 C-1.125 1.125 -1.125 1.125 0 0 Z " fill="#7DA6C9" transform="translate(333,228)"/>
<path d="M0 0 C0.66 0 1.32 0 2 0 C1.67 1.98 1.34 3.96 1 6 C-0.32 6.33 -1.64 6.66 -3 7 C-1.125 2.25 -1.125 2.25 0 0 Z " fill="#76A1C8" transform="translate(363,169)"/>
<path d="M0 0 C0.66 0 1.32 0 2 0 C1.34 1.98 0.68 3.96 0 6 C-0.99 6 -1.98 6 -3 6 C-1.125 1.125 -1.125 1.125 0 0 Z " fill="#78A2C6" transform="translate(370,157)"/>
<path d="M0 0 C0.66 0.33 1.32 0.66 2 1 C-0.97 3.475 -0.97 3.475 -4 6 C-4.66 5.34 -5.32 4.68 -6 4 C-4.02 2.68 -2.04 1.36 0 0 Z " fill="#C8DFE8" transform="translate(282,297)"/>
<path d="M0 0 C-1.75 1.5625 -1.75 1.5625 -4 3 C-6.25 2.6875 -6.25 2.6875 -8 2 C-7 0 -7 0 -5.125 -0.6875 C-3 -1 -3 -1 0 0 Z " fill="#81C3DD" transform="translate(256,252)"/>
</svg>
